<?xml version="1.0" encoding="UTF-8"?><svg id="Layer_1" xmlns="http://www.w3.org/2000/svg" viewBox="0 0 390 390.56"><defs><style>.cls-1,.cls-2,.cls-3,.cls-4{stroke-width:0px;}.cls-2{fill:#f2d000;}.cls-3{fill:#fff;}.cls-4{fill:#010101;}</style></defs><circle class="cls-3" cx="195" cy="195.28" r="192.29"/><path class="cls-4" d="m15.43,254.73c-2.52-1.69-3.28,2.09-5.26,2.25-.66-.3-.36,1.67.59,4.47.73,2.09,1.63,4.15,2.43,6.25.41,1.05.83,2.1,1.24,3.16.41,1.06.92,2.08,1.37,3.12.94,2.07,1.87,4.14,2.83,6.18,1.05,2,2.1,3.98,3.17,5.91.5.91.97,1.85,1.51,2.76.54.91,1.09,1.82,1.63,2.73,1.1,1.82,2.16,3.69,3.3,5.51,2.38,3.58,4.61,7.24,7.1,10.59,6.24,8.79,12.91,16.67,20.33,24.49,1.29,1.48,2.78,2.77,4.15,4.09,1.4,1.29,2.74,2.55,4.04,3.67,1.54,1.22,3.06,2.46,4.55,3.72.74.63,1.49,1.26,2.23,1.89.76.6,1.52,1.2,2.27,1.8,1.5,1.21,2.99,2.41,4.46,3.6,1.47,1.19,3,2.26,4.46,3.38,1.59,1.15,3.11,2.41,4.68,3.46,1.57,1.07,3.09,2.1,4.54,3.03,8.52,5.35,17.51,10.21,26.88,14.24,9.38,4,19.06,7.27,28.82,9.78,2.86.73,6.68,1.68,9.6,2.07,2.44.3,4.75.67,7.04,1.07l1.72.3c.58.08,1.16.15,1.75.23,1.17.15,2.36.31,3.57.46,11.68,1.49,23.49,1.93,35.25,1.35,11.77-.57,23.48-2.35,34.94-5.1l3.05-.7,3.02-.84,6.03-1.69,5.94-1.99,2.97-1c.98-.36,1.95-.76,2.92-1.13l5.83-2.29c1.92-.82,3.81-1.71,5.72-2.56l2.85-1.29c.95-.43,1.87-.94,2.8-1.4l5.58-2.86c1.94-1.05,3.87-2.2,5.84-3.31.98-.56,1.96-1.12,2.95-1.68l2.88-1.82c1.91-1.23,3.87-2.39,5.74-3.66,1.85-1.29,3.69-2.57,5.51-3.84.5-.36,1.01-.72,1.52-1.08.49-.39.99-.78,1.49-1.17,1-.79,2.01-1.59,3.03-2.39,1.01-.81,2.03-1.6,3.01-2.41.95-.85,1.89-1.69,2.81-2.5,9.94-8.79,18.97-18.56,27.15-28.99.76-.97,1.56-1.9,2.28-2.89l2.16-2.98c1.42-2,2.92-3.95,4.21-6.04,1.33-2.07,2.66-4.13,3.96-6.21l3.6-6.43c4.56-8.68,9.06-17.44,12.4-26.69.71-1.83,1.26-3.69,1.88-5.5.58-1.83,1.25-3.61,1.75-5.45.53-1.83,1.05-3.66,1.58-5.5.28-.92.55-1.84.83-2.77.24-.94.49-1.88.74-2.83l.55-2.4c1.29-7.26,2.72-14.98,3.47-22.8.24-2.11.35-4.24.52-6.35.14-2.12.37-4.24.38-6.36.14-5.39-.09-6.87-.95-7.36-1.58,0-3.06-.49-4.55-.49-.78-.48-1.58,0-2.32,1.41-.56,1.41-1.04,2.8-1.12,6.07-.47,11.23-2.05,22.38-4.21,32.92-.41,1.95-.81,3.87-1.21,5.77-.48,1.89-1,3.75-1.5,5.61-.93,3.76-2.28,7.39-3.52,11.17-5.13,14.18-12.1,27.67-20.44,40.22-8.41,12.51-18.39,23.94-29.47,34.13-2.27,2.03-4.52,3.9-6.68,5.79-2.22,1.82-4.44,3.54-6.59,5.35-2.5,2.12-5.33,3.82-7.98,5.74-2.01,1.21-4.04,2.38-6,3.65-.72.45-1.42.92-2.16,1.34l-2.21,1.26-4.42,2.52c-2.98,1.61-6.03,3.1-9.05,4.65l-4.64,2.09c-1.56.67-3.07,1.45-4.66,2.03l-4.73,1.86-2.37.93-2.41.82c-2.11.69-4.24,1.42-6.38,2.17-2.18.64-4.38,1.3-6.59,1.95-2.2.7-4.48,1.17-6.76,1.69-2.28.5-4.56,1.02-6.89,1.27-1.4.16-2.32.32-3.68.66-2.98.6-6.01.91-9.02,1.31-3.01.46-6.04.66-9.07.94-12.13.94-24.48.63-36.65-.94-12.18-1.57-24.18-4.4-35.67-8.34-22.59-7.58-43.24-19.38-61.38-34.82-1.59-1.37-3.18-2.75-4.78-4.13-1.54-1.44-3.09-2.88-4.65-4.34-1.6-1.42-3.06-2.99-4.59-4.53-1.5-1.57-3.1-3.07-4.53-4.77l-2.75-3.19c-.91-1.07-1.85-2.11-2.7-3.23-1.72-2.22-3.52-4.37-5.26-6.58-9.66-12.64-17.61-26.65-23.33-41.51-.85-2.19-1.58-3.91-2.29-5.65-1.13-3.07-2.53-5.58-3.05-4.92-.33.11-.45,1.15-.93.81Zm371.64-37.83c.21-.96.54-1.41.76-1.88-.04.48-.03.98-.06,1.96-.12.97-.39,2.41-.66,2.38-.17-.02-.31-1.02-.04-2.46Zm-4.99,5.19c.06-.47.27-1.41.41-1.87-.06.47.11.49-.03.96l-.24,1.89c-.03-.49-.2-.51-.14-.98Zm-3.89,11.33c.19-1.4.42-2.31.77-2.73,0,0,0,.48-.08.94-.04,1.44-.59,3.25-.75,3.22.02-.48-.05-.97.06-1.43Zm6.1,4.75c-.22.95-.59,1.37-.89,2.3-.23-.56-.03-3,.5-4.88.34-1.42.57-1.87.84-1.82.37.57.27,2.05-.44,4.4Zm-4.3,1.49c-.21-1.03.15-3.4.86-5.69.2-.44.43-.88.53-.87.19,1.01.08,2.46-.45,4.81-.32,1.41-.8,2.28-.94,1.75Zm-3.9,4.41c.26-.91.52-1.82.69-1.77.09.02.04.5-.09.95-.13.46-.47,1.34-.69,1.77l.09-.95Zm.84,1.21c.13-.46.43-.87.6-.82.25.07.08,1.01-.4,2.36-.21.44-.43.87-.51.85-.12-.53-.03-1.49.31-2.38Zm-3.33,5.92c.27-.9.47-1.33.82-2.21-.09.95-.05,1.46-.09,1.94-.34,1.38-.6,1.79-.76,1.74-.32.39-.27-.58.04-1.47Zm-6.79,29.09s.22-.43.3-.39c.3-.39.16.08-.36.9l-.3.39s.14-.47.36-.9Zm-7.15,9.8c-.23-.13.17-1,.96-2.2.55-.79.94-1.12.86-.62.08.04-.25.96-.49,1.38-.72,1.25-1.35,1.99-1.34,1.44Zm-9.89,14.06c.9-1.11,1.88-2.18,2.17-1.99.49-.24-.53,1.96-1.64,3.52-.84,1.17-1.95,2.14-2.16,1.98-.35-.26.47-2.02,1.64-3.52Zm-5.33,5.51c.44-.86,1.05-1.58,1.44-2.47.41-.28,1.03-1,1.18-.9.56-.18-.12,1.09-.89,2.3-.52.8-1.11,1.55-1.54,1.81-.14-.11-.35-.27-.2-.75Zm.88,3.7c.43-.27.8-.6.87-.54.07.05-.16.49-.46.87-.07-.05-.5.22-.87.54.23-.43.53-.81.46-.87Zm-6.71,5.01c.93-1.08,1.38-1.33,1.83-1.57.34.28-.16,1.12-1.03,2.26-.88,1.14-1.64,1.75-2.08,2-.89.49.1-1.19,1.28-2.68Zm-6.41,5.08c.65-.68,1.11-.91,1.11-.91.19.18-.33.98-.99,1.67-.33.34-.78.56-1.17.85-.19-.18.33-.99,1.05-1.61Zm-.82,9.22c-.05-.05.63-.74,1.24-1.52,1.07-.99,1.53-1.23,1.32-.75-.27.41-.88,1.18-1.22,1.54-1,1.07-1.58,1.18-1.34.73Zm-6.07-3.43c.34-.32.4-.26.74-.58-.62.71-.9,1.1-1.58,1.75,0,0-.4.26-.46.2l1.3-1.36Zm-.92,4.52c.63-.72,1.38-1.32,1.85-1.52.06.06-.51.85-.86,1.18-.35.33-1.1.93-1.5,1.19l.51-.85Zm-5.69,2.91c.71-.62,1.13-.86.89-.42.06.07-.24.44-.24.44-.78.56-1.19.8-1.61,1.04-.11-.13.18-.51.96-1.06Zm-.08,3.55l.48-.18c.11.13-.55.83-1.34,1.39-.06-.07-.42.25-.48.18.31-.38,1.03-1.01,1.34-1.39Zm-18.95,17.33c.26-.48,1.44-1.34,2.31-1.79,1.22-.78,3.03-1.59,2.74-1.15-.74.64-1.83,1.64-2.67,2.14-1.23.79-2.65,1.28-2.38.8Zm-8.61.71c.23-.54,1.02-1.08,1.83-1.57,1.64-.95,3.03-1.42,2.73-1.02-.71.66-1.46,1.26-2.72,1.94-1.24.71-2.15,1.04-1.83.65Zm-4.1,7.41c-.52.07-.99.21-1.03.13.39-.3.31-.45.7-.75.47-.16.97-.25,1.01-.17.04.08-.34.4-.68.79Zm-2.74-2.04l.85-.44c1.31-.6.94-.29.13.23-.43.22-.9.36-.9.36l-.08-.16Zm-7.87,2.43c.83-.48,2.55-1.29,2.59-1.2.04.08-.35.37-.77.59-.43.21-.87.37-1.74.77l-.08-.16Zm-7.64,7.62l.59.15-.87.44-1.01.11c.42-.26.84-.52,1.29-.7Zm-9.66-1.03c.49-.05,1.39-.34.98-.08.07.18-.8.58-1.73.79l-.99.06c.39-.32.81-.55,1.74-.77Zm-11.82,5.17c1.35-.47,2.75-.78,3.27-.74.54.12-.72.93-2.1,1.33-1.38.39-2.35.49-2.86.45-.09-.34.8-.68,1.7-1.03Zm-9.16.67c2.3-.53,3.75-.6,3.86-.17.07.26-.82.64-1.73.94-1.84.51-4.24.71-4.77.47-.06-.26,1.25-.92,2.63-1.24Zm-1.91,6.83l-1.48.07c.95-.22,1.41-.42,1.88-.53.46-.2.5-.02.97-.13l-1.37.59Zm-.35-3.88c-.47.11-1.38.41-1.87.43-.47.11-.48.03-.99-.05.94-.2,1.4-.32,1.89-.34.47-.11.95-.13.97-.04Zm-6.72.54c1.44-.08,1.93-.08,2.9-.07-.94.17-2.34.51-3.77.67l-.99-.09,1.85-.51Zm-9.15-.06c.01.09.02.17-.43.32l-.47.06c-.01-.09-.49-.11-.49-.11.44-.32.9-.38,1.39-.27Zm-5.04,6.48c.49-.06.96-.21.97-.12,1.46-.1.99.05.02.17q-.48.06-.98.04v-.09Zm-7.9-1.32c.97.01,1.47.24,1.48.41.01.18-.94.42-1.91.58-.96.17-2.43,0-2.44-.28,0-.23,1.9-.73,2.86-.72Zm-23.16-.16c.96.1,2.41.19,2.88.39.96.19-.99.53-2.45.53-1.45-.11-1.92-.32-2.39-.62-.46-.3.51-.31,1.95-.29Zm-9.67-4.76c.01-.1,1.42.03,1.89.12,1.41.11,1.87.32,1.37.54-.49.13-1.45.17-2.38-.03-1.4-.27-1.37-.53-.89-.64Zm-9.12.21c.01-.09.49,0,.95.08.93.2.91.31-.51.18l-.46-.17v-.09Zm-2.73,1.83s.49,0,.97.08c.93.26.92.34-.04.26-.48-.09-.95-.17-.94-.26v-.09Zm-14.99-5.48c.94.13,2.25.79,2.21.96-.95-.13-1.44-.15-1.9-.26-1.39-.35-1.32-.64-1.27-.8.48.05.51-.04.96.09Zm-46.97-20.24c1.23.71,2.25,1.8,1.34,1.48-.96-.25-2.28-.81-3.43-1.67-1.19-.79-1.51-1.17-1.38-1.4.96.25,1.87.57,3.47,1.59Zm-39.37-22.65c.36.34.3.4.65.74-.41-.27-.77-.61-.77-.61l-.7-.67c-.23-.46.18-.19.83.54Zm-23.14-36.31s.18.45.44.85c-.26-.4-.59-.75-.84-1.15-.07.05-.26-.4-.18-.45,0,0,.33.35.58.75Zm-10.31-15.4c.22.43.36.89.36.89-.15.08-.45-.3-.6-.22-.14-.47-.5-1.36-.42-1.4.08-.04.37.34.67.72Zm-8.58-12.33c.48.84.75,2.3.39,1.94,0,0-.28-.41-.48-.85-.4-.88-.99-2.2-.75-2.3.28.4.64.77.84,1.22Zm-2.55-2.6c.18.45.27.93.27.93-.16.07-.42-.35-.58-.28-.1-.49-.37-1.43-.29-1.46.08-.03.52.84.6.81Zm-2.08-9.56c.66,1.3,1.69,3.99,1.71,5.02.09.48-.33.13-.41.16-.44-.87-1.05-2.19-1.4-3.09-.49-1.36-.62-2.34-.53-2.89.24.43.4.37.64.8Z"/><path class="cls-4" d="m14.86,242.13c-.69-2.72-1.29-5.36-1.92-8.02-.34-1.32-.55-2.68-.8-4.04-.24-1.36-.49-2.74-.75-4.15-.93-5.64-1.67-11.8-2.11-19.26,0-1.87.01-3.51-.09-5.02-.11-1.52-.22-2.92-.32-4.32-.02-.7-.03-1.41-.05-2.12.02-.71.04-1.44.06-2.16.04-1.45.08-2.93.12-4.42.01-2.98.36-6.01.57-9.03.17-3.03.63-6.04,1.01-8.99.21-1.47.34-2.95.61-4.37.26-1.43.51-2.84.76-4.22.28-1.49.51-2.99.82-4.48l1.02-4.44,1.01-4.44,1.2-4.39c.65-2.25.97-3.73,1.11-4.67.14-.93,0-1.35-.37-1.47-2.43-.77-4.79-3.07-6.68-2.15-.29-.09-.68.29-1.15,1.17-.46.88-.92,2.28-1.46,4.16-.5,1.77-1.01,3.54-1.52,5.33-.42,1.81-.85,3.62-1.28,5.46-.93,3.65-1.54,7.41-2.23,11.24-.16.96-.37,1.92-.48,2.89-.12.98-.24,1.96-.36,2.94-.23,1.97-.47,3.97-.71,5.98-.16,2.03-.27,4.08-.4,6.16-.12,2.08-.27,4.19-.23,6.33.03,2.44-.41,5.37-.19,7.82-.19,8.31.19,16.66,1.36,25.41l.42,3.47c.13,1.16.38,2.3.57,3.45l1.23,6.88c1.1,4.53,2.01,9.1,3.38,13.56.81,2.83,1.32,4.47,1.81,5.4.5.93.89,1.19,1.39,1.29,2.33-.76,3.7-2.19,6.34-2.05.25-.08.42-.14.52-.66.1-.52.03-1.48-.38-3.31-.55-2.28-1.19-4.52-1.83-6.76Zm-9.35-9.09c.16.96.25,1.68.25,2.12-.01.44-.13.59-.36.38-.18-.21-.43-.66-.64-1.23-.19-.58-.37-1.29-.45-2.02-.17-.96,0-1.98.18-2.01.34.43.69.86,1.03,2.77Zm4.54-80.09l-.73,2.77c-.11.46-.19.44-.39.89.02-.48.13-.95.26-1.9.09.02.77-1.78.86-1.76Zm-3.23.75l-.3.92.35-1.91-.05.98Z"/><path class="cls-4" d="m383.53,194.48c1.9,2.39,3.75-.97,5.69-.51.54.49.84-1.48.77-4.42-.05-4.42-.52-8.95-.83-13.48-.22-2.26-.56-4.51-.85-6.75-.16-1.12-.32-2.23-.47-3.34-.18-1.1-.43-2.19-.65-3.27-.4-2.05-.81-4.12-1.23-6.21-.46-2.08-1.01-4.16-1.5-6.25l-.75-3.13c-.25-1.04-.58-2.06-.87-3.08-.59-2.05-1.17-4.08-1.75-6.08-3.23-10.3-7.23-19.8-11.78-29.58-.85-1.77-1.75-3.51-2.64-5.19-.89-1.68-1.9-3.22-2.78-4.7-4.12-6.68-8.42-13.21-12.58-19.29-1.13-1.6-2.32-3.16-3.44-4.7-.57-.76-1.13-1.51-1.67-2.24-.54-.74-1.1-1.43-1.67-2.07-6.39-7.78-13.57-15.05-21.19-21.81l-2.88-2.51-1.44-1.25-1.5-1.19c-2-1.58-4-3.15-5.99-4.72-2.07-1.48-4.13-2.95-6.19-4.42-.52-.36-1.03-.74-1.55-1.09l-1.59-1.02-3.18-2.04c-2.4-1.73-5.84-3.65-8.47-4.97-1.09-.56-2.16-1.11-3.21-1.66-1.06-.52-2.1-1.04-3.15-1.56-1.04-.53-2.07-1.06-3.13-1.6-.52-.27-1.05-.54-1.59-.82-.54-.26-1.1-.5-1.65-.76C256.58,8.54,233.38,2.45,209.89.65c-8.31-.79-16.68-.73-25.02-.47-8.33.54-16.66,1.29-24.87,2.87-4.37.68-8.79,1.77-13.23,2.75-2.21.51-4.39,1.18-6.57,1.76-1.09.3-2.18.6-3.26.89-1.08.31-2.13.68-3.18,1.02-2.32.81-4.79,1.57-7.2,2.5-2.4.96-4.79,1.92-7.07,2.87-12.19,5.25-23.81,11.76-34.78,19.18-8.17,5.45-15.87,11.61-22.97,18.39-7.12,6.74-13.96,13.83-20.04,21.55-1.21,1.55-2.39,3.08-3.57,4.59-1.1,1.57-2.2,3.13-3.29,4.68-2.26,3.06-4.23,6.32-6.49,9.54-.44.69-.89,1.37-1.28,2.09-.83,1.65-1.7,3.31-2.61,4.97-.46.83-.92,1.66-1.39,2.5-.43.85-.87,1.71-1.3,2.58-.88,1.72-1.76,3.46-2.65,5.2-.86,1.75-1.61,3.57-2.39,5.37-1.83,3.84-3.3,7.83-4.87,11.78-1.83,5.08-1.98,6.58-1.33,7.31,1.5.5,2.76,1.42,4.18,1.88.6.69,1.5.49,2.62-.63.97-1.16,1.77-2.37,2.91-5.44,3.88-10.54,8.89-20.64,14.26-29.97.92-1.77,2-3.41,3.01-5.07,1.04-1.65,2.01-3.32,3.1-4.92,2.24-3.15,4.34-6.41,6.88-9.49,1.17-1.47,2.33-2.97,3.52-4.43l3.72-4.26,1.86-2.13,1.95-2.05,3.91-4.08c1.32-1.34,2.72-2.6,4.08-3.91,1.38-1.28,2.7-2.63,4.16-3.83,2.86-2.45,5.67-4.97,8.69-7.23,1.49-1.15,2.95-2.35,4.48-3.45l4.62-3.26c.77-.54,1.53-1.1,2.31-1.62l2.38-1.52,4.76-3.04c6.5-3.79,13.1-7.45,20.01-10.45,1.39-.62,2.75-1.24,4.09-1.84,1.37-.54,2.72-1.07,4.05-1.59,1.33-.53,2.65-1.06,3.96-1.59,1.31-.53,2.65-.96,3.96-1.47,1.52-.61,3.08-1.13,4.64-1.64,1.56-.49,3.17-.85,4.74-1.31,2.28-.53,4.53-1.18,6.83-1.65,13.2-3.13,26.72-4.9,40.28-5.2,4.44-.18,9,0,13.63.04,2.31.14,4.63.32,6.95.51,2.33.15,4.64.53,6.95.93,1.38.26,2.31.38,3.71.47,1.51.15,3,.49,4.5.74l4.49.79c1.5.23,2.98.61,4.46.93l4.45.98c11.82,2.84,23.46,6.97,34.54,12.26,11.09,5.28,21.61,11.72,31.31,19.04,19.12,14.24,35.12,31.85,47.61,52.13,1.13,1.78,2.13,3.63,3.21,5.44.54.91,1.07,1.82,1.61,2.73.53.92,1,1.87,1.5,2.81.99,1.89,2,3.79,3.01,5.7.92,1.97,1.84,3.95,2.78,5.97l.86,1.92.77,1.96,1.53,3.92c1.09,2.59,1.94,5.26,2.94,7.89,5.46,14.96,8.29,30.82,9.27,46.7.22,2.34.23,4.21.37,6.08.17,3.27.77,6.09,1.46,5.62.35,0,.77-.95,1.13-.48ZM18.49,115.21c-.48.85-.92,1.19-1.28,1.56.2-.44.32-.92.64-1.85.4-.89,1.09-2.19,1.32-2.07.16.08,0,1.07-.68,2.37Zm6.34-3.39c-.21.42-.74,1.23-1.01,1.62.19-.43.05-.5.34-.89l.87-1.7c-.14.46.02.54-.2.96Zm7.28-9.53c-.63,1.27-1.17,2.04-1.64,2.32,0,0,.16-.45.39-.86.55-1.31,1.57-2.91,1.72-2.82-.16.45-.24.95-.48,1.36Zm-4.38-6.46c.49-.84.95-1.14,1.56-1.91,0,.57-.89,2.87-1.94,4.51-.73,1.27-1.12,1.6-1.35,1.47-.14-.64.36-2.04,1.73-4.07Zm4.55-.07c-.18,1.01-1.16,3.21-2.52,5.18-.31.37-.7.7-.78.65.17-1,.66-2.38,1.86-4.46.7-1.26,1.5-1.9,1.44-1.37Zm5.12-2.95c-.51.8-1.02,1.59-1.17,1.5-.07-.05.11-.49.36-.89.26-.4.84-1.15,1.17-1.5l-.36.89Zm-.44-1.42c-.26.4-.66.7-.81.61-.22-.14.22-.99,1.07-2.15.32-.36.67-.7.75-.65-.07.53-.41,1.44-1.01,2.19Zm5.06-4.56c-.55.77-.89,1.1-1.51,1.82.4-.87.53-1.35.73-1.79.75-1.2,1.1-1.54,1.24-1.44.41-.28.08.64-.46,1.41Zm15.44-25.58s-.33.35-.39.29c-.4.29-.13-.12.6-.76l.4-.29s-.27.41-.61.76Zm9.8-7.14c.17.19-.49.89-1.58,1.82-.75.59-1.21.8-.99.34-.06-.06.51-.85.86-1.19,1.02-1.01,1.89-1.48,1.7-.98Zm13.76-10.32c-1.18.81-2.41,1.56-2.63,1.28-.53.1,1.06-1.76,2.6-2.91,1.17-.84,2.55-1.39,2.71-1.17.26.36-1.1,1.73-2.68,2.79Zm6.8-3.57c-.67.7-1.44,1.24-2.11,1.93-.49.13-1.31.61-1.41.47-.59,0,.47-.98,1.58-1.88.72-.62,1.5-1.17,1.99-1.31.1.14.25.36-.04.78Zm.28-3.83c-.51.11-.94.33-1,.25-.05-.07.29-.44.7-.69.05.07.55-.04,1-.23-.36.33-.76.59-.71.66Zm7.94-2.69c-1.2.77-1.7.88-2.19.99-.23-.37.48-1.03,1.64-1.89,1.17-.84,2.11-1.13,2.61-1.23,1.01-.16-.49,1.06-2.06,2.13Zm7.68-2.83c-.82.47-1.31.55-1.31.55-.13-.23.6-.85,1.43-1.33.41-.23.9-.33,1.36-.46.12.22-.61.84-1.48,1.24Zm3.66-8.47c.04.08-.83.52-1.65,1.04-1.34.59-1.86.66-1.51.28.4-.3,1.22-.82,1.66-1.05,1.31-.67,1.86-.65,1.5-.28Zm4.68,5.09c-.42.21-.46.13-.87.35.8-.51,1.18-.8,2.02-1.23,0,0,.46-.14.5-.05l-1.64.93Zm2.28-4.01c-.83.48-1.75.77-2.24.84-.04-.09.75-.65,1.19-.84.43-.2,1.34-.51,1.82-.63l-.76.63Zm6.31-1.02c-.86.39-1.32.5-.96.15-.03-.08.36-.36.36-.36.9-.31,1.36-.44,1.84-.52.07.16-.34.41-1.23.73Zm1.18-3.34l-.52.02c-.07-.16.8-.6,1.72-.87.03.08.48-.1.52-.02-.42.26-1.31.61-1.72.87Zm23.41-10.58c-.4.39-1.78.87-2.74,1.05-1.39.4-3.39.51-2.97.21.91-.35,2.27-.92,3.21-1.18,1.4-.4,2.9-.46,2.5-.07Zm8.41,2.05c-.39.45-1.29.75-2.22.96-1.87.34-3.35.32-2.93.05.89-.38,1.8-.68,3.21-.92,1.4-.32,2.36-.36,1.93-.09Zm6.21-5.72c.51.09,1,.09,1.02.17-.46.17-.43.34-.89.52-.5,0-1.01-.09-1.02-.17-.02-.09.44-.26.9-.52Zm1.96,2.77l-.94.17c-1.43.17-.98,0-.05-.26.47-.08.96-.08.96-.08l.03.17Zm8.24.17c-.93.21-2.83.36-2.85.27-.01-.09.45-.23.92-.29.47-.06.95-.03,1.9-.15l.02.17Zm9.64-4.88l-.51-.31.96-.16.99.19c-.48.13-.96.25-1.44.29Zm8.86,3.99c-.48-.08-1.43-.14-.96-.24,0-.18.94-.29,1.89-.22l.95.24c-.47.19-.94.29-1.89.22Zm12.85-1.3c-1.44.05-2.86-.07-3.34-.26-.47-.27.97-.68,2.41-.64,1.44.04,2.39.24,2.86.42-.02.35-.97.41-1.93.48Zm8.92,2.19c-2.36-.18-3.76-.55-3.73-.99.02-.26.97-.37,1.93-.38,1.91.06,4.25.59,4.69.97-.03.26-1.47.5-2.89.4Zm3.92-5.95c.48.11.95.29,1.43.43-.97-.13-1.46-.08-1.95-.12-.49.05-.48-.13-.96-.16l1.49-.15Zm-.86,3.8c.48.02,1.44.04,1.91.2.48.06.47.15.92.38-.95-.12-1.43-.18-1.89-.33-.47-.05-.95-.16-.94-.25Zm6.56,1.59c-1.4-.36-1.86-.5-2.79-.8.95.12,2.39.22,3.8.48l.91.38-1.92-.07Zm8.69,2.88c.02-.09.03-.17.51-.18l.47.08c-.02.09.43.26.43.26-.51.18-.98.09-1.41-.16Zm6.79-4.59c-.48-.11-.97-.13-.95-.22-.7-.22-.94-.29-.87-.31.07-.03.43.02.91.14q.47.11.94.31l-.02.09Zm7.13,3.63c-.92-.3-1.33-.67-1.29-.84.04-.17,1.03-.14,2,.02.96.18,2.29.83,2.22,1.09-.07.26-2.02.05-2.93-.27Zm21.95,7.4c-.9-.35-2.22-.97-2.6-1.31-.84-.52,1.09-.14,2.47.31,1.35.53,1.74.87,2.09,1.3.35.42-.58.15-1.96-.3Zm7.71,7.53c-.04.08-1.36-.42-1.76-.7-1.29-.58-1.65-.94-1.12-.99.5.03,1.4.34,2.23.82,1.26.67,1.15.91.65.87Zm8.73,2.65c-.04.08-.47-.14-.89-.36-.81-.51-.77-.59.54-.02l.39.3-.04.08Zm3.18-.93s-.47-.14-.9-.36c-.81-.52-.78-.59.12-.23.43.22.86.44.82.52l-.04.08Zm12.5,9.93c-.85-.44-1.86-1.51-1.77-1.66.85.44,1.3.62,1.7.88,1.21.77,1.06,1,.97,1.14-.45-.19-.5-.11-.9-.37Zm38.43,33.76c-.91-1.09-1.61-2.38-.81-1.83.87.5,1.9,1.49,2.71,2.68.87,1.14,1.05,1.61.85,1.78-.82-.54-1.57-1.15-2.75-2.64Zm30.48,33.7c-.22-.44-.15-.48-.39-.9.33.38.55.82.55.82l.44.87c.07.52-.23.12-.6-.78Zm10.66,41.72s-.04-.48-.18-.94c.13.46.34.89.47,1.34.09-.02.13.45.04.48,0,0-.21-.43-.34-.89Zm5,17.84c-.08-.47-.08-.95-.08-.95.17-.03.34.42.52.39,0,.49.08,1.44,0,1.45-.09.01-.26-.44-.43-.89Zm4.34,14.39c-.14-.95.04-2.42.26-1.96,0,0,.16.47.19.95.07.96.18,2.41-.08,2.43-.12-.47-.34-.94-.37-1.42Zm1.57,3.26c-.04-.48.01-.97.01-.97.18-.01.3.46.47.45-.05.49-.06,1.47-.15,1.48-.09,0-.25-.96-.34-.95Zm-.99,9.73c-.31-1.44-.25-4.32,0-5.3.05-.48.35-.02.44-.02.18.96.25,2.41.29,3.37.04,1.45-.11,2.42-.36,2.91-.1-.48-.28-.48-.38-.96Z"/><path class="cls-2" d="m228.95,162.5c1.08-.99,2.08-2.1,3.27-2.93,2.2-1.53,4.74-2.17,7.33-2.84,4.1-1.05,7.48.49,10.85,2.26,4.2,2.21,6.87,5.89,9.06,9.95,1,1.86,1.94,3.76,2.84,5.68.68,1.43.14,2.35-.98,3.53-2.04,2.16-4.21,4.21-5.91,6.72-2.08,3.07-5.21,4.71-8.96,4.84-4.85.16-9.34-1.36-13.75-3.15-2.79-1.14-5.21-2.76-7.02-5.22-1.3-1.77-1.88-3.81-2.2-5.91-.69-4.53,1.48-8.12,4.02-11.56.06-.08.18-.13.27-.19-.34.61-.66,1.22-1.01,1.82-1.22,2.08-1.72,4.36-1.93,6.72-.21,2.38-.05,4.09.48,5.13-.84-5.89,2.63-10.46,4.6-15.53-.32.23-.65.46-.97.68Zm-.21,11.98c.07,4.62.54,5.32,1.84,8.06,1.19,2.5,3.04,4.21,5.77,4.89,1.87.47,3.74.99,5.63,1.38,2.08.43,4.18.4,6.25-.19,6.08-1.73,8.97-7.52,9.69-12.95.43-3.27-.25-6.45-2.14-9.22-.78-1.15-1.69-2.32-2.78-3.15-1.5-1.14-3.26-1.92-4.85-2.94-2.36-1.5-5.1-2.23-7.7-2.25-2.7-.01-5.37,1.47-7.07,3.67-1.85,2.4-3.88,4.84-4.04,8.16-.07,1.52-.39,3.03-.6,4.55Zm0,0c.07,4.62.54,5.32,1.84,8.06,1.19,2.5,3.04,4.21,5.77,4.89,1.87.47,3.74.99,5.63,1.38,2.08.43,4.18.4,6.25-.19,6.08-1.73,8.97-7.52,9.69-12.95.43-3.27-.25-6.45-2.14-9.22-.78-1.15-1.69-2.32-2.78-3.15-1.5-1.14-3.26-1.92-4.85-2.94-2.36-1.5-5.1-2.23-7.7-2.25-2.7-.01-5.37,1.47-7.07,3.67-1.85,2.4-3.88,4.84-4.04,8.16-.07,1.52-.39,3.03-.6,4.55Z"/><path class="cls-3" d="m251.54,169.44c-.31-.02-.63-.03-1.09-.06.49,1.18.95,2.26,1.48,3.54.2-.46.33-.77.5-1.17,1.08,3.55.25,6.61-1.97,9.35-1.43,1.76-3.32,2.87-5.56,3.07-1.82.16-3.54-.5-4.97-1.67-5.31-4.3-4.09-12.49.65-16.14,2.46-1.89,6.09-1.98,8.57.04.98.8,1.75,1.85,2.62,2.78-.07.08-.15.16-.22.24Zm-1.22,3.39c.64-2.48-.94-3.63-3.29-4.21.09.34.21.76.33,1.19-.46.08-.93.18-1.39.24-.13.02-.28-.13-.42-.14-1.11-.01-2.22,0-3.33,0,.01.07.03.13.04.2,2.69.91,5.37,1.82,8.07,2.73Zm0,0c.64-2.48-.94-3.63-3.29-4.21.09.34.21.76.33,1.19-.46.08-.93.18-1.39.24-.13.02-.28-.13-.42-.14-1.11-.01-2.22,0-3.33,0,.01.07.03.13.04.2,2.69.91,5.37,1.82,8.07,2.73Z"/><path class="cls-1" d="m182.81,199.58c.8.56,1.6,1.12,2.5,1.75-.49.04-.86.06-1.22.09-.01.05-.02.11-.04.16,3.27,1.32,6.56,2.6,9.8,3.99,1.22.53,2.3,1.38,3.48,2.01,1.27.68,2.62,1.16,4.36,1.07-1.46-1.37-3.47-1.71-4.04-3.76,1.05.78,2.22,1.43,3.1,2.36.94.99,1.93,2.08,3.26,1.93,1.66-.18,3.03.5,4.47.93,1.19.35,2.32.93,3.29,1.91.64.65,1.91.71,2.91,1,1.24.35,2.49.65,4.03,1.05-.56.37-.86.57-1.29.85.3.07.49.15.69.15,2.75,0,5.5.12,8.24-.02,3.02-.15,5.7-1.29,8.18-3.09,1.91-1.39,4.04-2.22,6.62-1.83.99.15,2.35-.59,3.2-1.32,1.79-1.54,3.9-2.13,6.08-2.61,2.39-.53,4.4-1.78,6.39-3.11,1.14-.76,2.28-1.51,3.53-2.1-1.83,1.87-3.54,3.89-5.54,5.57-1.4,1.17-3.14,1.97-4.81,2.78-1.88.92-3.61,2.01-5.02,3.55-2.98,3.25-6.53,5.6-10.68,7.07-.46.16-.85.53-1.27.8.04.1.07.21.11.31.96-.23,1.93-.46,2.89-.69.02.06.05.12.07.19-3.31,1.43-6.62,2.86-9.93,4.29-.06-.12-.11-.23-.17-.35,1.43-.85,2.85-1.7,4.28-2.55-.04-.08-.08-.17-.12-.25-3.08,1.37-5.94,3.38-9.51,3.33,4.75-2.03,9.72-3.58,14.25-6.16-.95-1.36-2.07-.45-3.1-.36-.05-.09-.11-.17-.16-.26,2.54-1.92,5.08-3.83,7.59-5.72-1.3-.48-1.7-.49-2.91.36-1.74,1.22-3.67,2.23-4.87,4.11-.15.23-.46.39-.72.51-3.18,1.48-6.37,2.95-9.82,4.54.13-.73.18-1.04.3-1.68-1.61.61-3.03,1.15-4.45,1.69-.05-.1-.1-.2-.16-.3.8-.57,1.6-1.14,2.41-1.71l-.06-.17c-.64.15-1.29.31-2.11.5.56-1.5,2.26-1.63,3.01-2.71-.05-.13-.1-.26-.15-.39-1.29.19-2.61.3-3.88.6-1.47.35-2.9.73-4.34-.07-.1-.06-.23-.18-.3-.15-2.13.85-3.74-.89-5.65-1.14-1.06-.14-2.1-.48-3.18-.73.05-.09.15-.3.24-.47-1.03-.37-2.19.82-3.1-.46h-1.47c2.84-1.03,5.77-1.77,8.47-3.15-8.95-1.24-17.47-.29-25.21,4.75.33-.12.66-.23.99-.35.38-.14.75-.35,1.14-.44,1.47-.36,2.97-.65,4.43-1.05,1.29-.36,2.53-.87,3.81-1.24,1.21-.35,2.44-.62,3.66-.92.04.1.09.2.13.3-.39.26-.78.52-1.16.77.25.27.51.55.74.79,1.38-.46,2.77-.92,4.16-1.38.03.1.07.2.1.3-1.31.44-2.63.88-3.94,1.32.01.08.03.16.04.24.29.05.58.1.88.15.01.07.03.14.04.21-1.91.59-3.83,1.19-5.74,1.78-.05-.14-.1-.28-.16-.42.82-.42,1.64-.84,2.46-1.26-.02-.05-.04-.11-.07-.16-.99.27-1.99.76-2.98.76-1.66,0-3.16.6-4.74.8-2.02.26-2.64.32-4.73,1.88h1.95l.04.21c-2.26.7-4.52,1.4-6.78,2.1-.03-.05-.06-.11-.09-.16.49-.35.98-.71,1.46-1.06-2.96.44-5.49,2.51-8.57,1.87-.23-.14-.46-.4-.71-.42-2.21-.17-4.42-.29-6.63-.61.67-.13,1.33-.25,2.11-.4-1.39-.37-2.66-.9-3.98-1.01-1.18-.1-2.4.26-3.61.42,0,.13-.01.25-.02.38,1.13.18,2.25.37,3.38.55-1.94.21-3.96,0-5.84,1.43,2.58.21,4.65,1.62,7.21,1.34,1.93-.21,3.92.2,5.88.34.02.13.03.25.05.38-2.08.4-4.15.8-6.23,1.2.01.06.03.12.04.18h9.52c.02.09.04.17.06.26-2.6.52-5.19,1.04-7.79,1.57.02.15.04.29.06.44,1.65-.12,3.31-.18,4.95-.39,1.66-.21,3.32-.52,4.95-.88,1.63-.36,3.23-.82,4.84-1.24.05.16.1.32.15.47-1.27.42-2.51,1-3.82,1.22-2.62.43-5.28.61-7.92.97-1.48.2-2.93.52-4.34,1.01,2,.31,4,.62,6.23.96-2.68.66-5.21,1.05-7.56,1.92-2.38.89-4.58,2.25-6.95,3.46,2.02.57,3.83-.49,5.82-.51-1.06.51-2.11,1.02-3.17,1.53.01.06.03.13.04.19,1.33-.24,2.67-.47,3.92-.7-.33,1.58-1.74,1.71-2.99,1.9-1.7.26-3.44.38-5.16.48-2.59.15-5.18.22-7.92.17,1.74-1.02,3.47-2.03,5.4-3.16-.77.07-1.4.08-2.01.19-.84.16-1.26-.02-.94-1.13-1.65.68-3.19,1.32-4.74,1.96l-.14-.22c.62-.53,1.23-1.06,2.11-1.81-1.8.66-3.3,1.2-4.8,1.75l-.08-.18c.94-.65,1.88-1.3,3.02-2.09-1.14.08-2.05.15-2.97.22-.04-.1-.07-.2-.11-.31.65-.33,1.29-.65,1.94-.98-.01-.04-.03-.09-.04-.13-1.14.16-2.28.28-3.41.48-1.1.2-2.24.67-2.79-.89.25-.15.61-.37,1.12-.67-.52-.03-.87-.05-1.24-.08,1.46-1.35,2.89-2.67,4.33-3.99-.12-.05-.31-.14-.64-.28,4.11-1.76,8.38-2.29,12.65-2.84-.02-.16-.04-.31-.06-.47-.31-.05-.62-.12-.94-.15-2.72-.3-5.44-.61-8.16-.9-2.09-.22-4.14.12-6.11.78-1.65.55-3.33,1.14-4.82,2.01-.88.52-1.5,1.55-2.56,1.88-1.88.6-3.76,1.15-5.65,1.7-.19.05-.41-.02-.67-.23.99-.46,1.98-.93,3.1-1.45-.52-.13-.91-.23-1.5-.38.75-.49,1.3-.85,2.13-1.39-2.75.44-5.18.82-7.6,1.2-.04-.12-.08-.23-.12-.35,1.47-.64,2.93-1.28,4.67-2.04-.63-.11-.94-.17-1.44-.26.63-.27,1.12-.48,1.6-.68,0-.05-.01-.11-.02-.16-1.01.09-2.02.17-3.03.26-.03-.07-.06-.14-.09-.21.82-.43,1.65-.87,2.47-1.3,0-.04-.01-.09-.02-.13-1.39.26-2.79.52-4.18.79l-.13-.31c1.22-.63,2.44-1.26,3.66-1.9-.02-.08-.04-.16-.06-.23-1.61.5-3.22.99-4.83,1.49-.03-.07-.07-.14-.1-.2.77-.43,1.54-.85,2.32-1.28-.02-.05-.04-.11-.06-.16-.88.31-1.76.63-2.84,1.01.31-.41.49-.65.81-1.09-.95.43-1.68.75-2.4,1.08-.04-.06-.07-.12-.11-.19.26-.22.52-.43.78-.65-.02-.05-.04-.09-.06-.14-1.39.62-2.78,1.25-4.18,1.87-.03-.05-.06-.1-.1-.16.3-.22.61-.45.91-.67-.02-.03-.03-.07-.05-.1-1.14.39-2.27.77-3.41,1.16-.04-.09-.09-.18-.13-.28,1.1-.65,2.19-1.29,3.53-2.08-1.88.27-3.3,1.33-5.07.97-1.6-.32-3.27-.33-4.97-.31.95.32,1.9.63,2.85.95-.01.04-.02.08-.03.12h-5.26c.99.44,1.87.83,2.99,1.33-.48.21-.69.39-.86.36-3.03-.54-5.95,0-8.91.62-2.33.5-4.76.64-7.16.74-2.22.1-4.42.15-6.55.9-.3.11-.68.01-1.19-.24.64-.43,1.25-.91,1.94-1.27.73-.38,1.53-.64,2.3-.96l-.1-.39c-1.98.35-3.95.69-6.04,1.06,1.61-.65,3.16-1.28,4.7-1.91-.04-.1-.08-.2-.12-.29-2.44,1.01-4.89,2.01-7.33,3.02,2.32-2.38,5.5-3.01,8.27-4.54-.97.28-2.01.42-2.9.86-2.94,1.46-5.8,3.08-8.74,4.54-2.26,1.12-4.59,2.11-7.06,2.93,1.21-1.12,2.39-2.28,3.64-3.35,1.25-1.07,2.57-2.06,3.86-3.08,1.32-1.05,2.62-2.13,3.96-3.14,1.3-.98,2.65-1.9,4.07-2.91h-1.95c.96-.65,1.77-1.21,2.59-1.77-.04-.07-.07-.14-.11-.21-1.5.66-3,1.31-4.5,1.97-.08-.11-.16-.22-.24-.34.54-.57,1.08-1.13,1.62-1.7-.03-.04-.07-.07-.1-.11-1.33.96-2.69,1.88-3.99,2.89-2.04,1.59-3.97,3.32-6.06,4.84-.98.71-1.92,1.61-3.29,1.69-.41.02-.8.5-1.18.8-.31.24-.58.53-1.06.66l.21-.89c-.07-.07-.14-.13-.21-.2-.67.81-1.33,1.62-2,2.44-.11-.1-.22-.21-.33-.31,2.3-3.48,4.57-6.97,7.65-9.88,3-2.83,5.9-5.78,8.84-8.67-.85.42-1.72.91-2.65,1.29-.34.14-.8,0-1.2.02-.3.01-.67-.02-.89.13-2.39,1.59-4.8,3.16-7.14,4.83-2.17,1.55-4.27,3.19-6.4,4.8-.11-.14-.23-.28-.34-.42,2.35-1.94,4.6-4.04,7.09-5.78,3.48-2.44,7.15-4.6,10.71-6.91.93-.6,1.79-1.3,2.8-2.04-.44-.26-.71-.42-1.34-.8,1.67-.63,3.11-1.17,4.89-1.84-.86-.32-1.48-.55-2.4-.89.39-.25.66-.42.92-.59-.29-.25-.58-.5-1.08-.92-1.01.31-2.27.69-3.53,1.07-.06-.09-.13-.18-.19-.26,2.12-1.52,4.24-3.03,6.36-4.55-.02-.05-.04-.1-.07-.15-3.09,1.18-6.18,2.35-9.27,3.53-.05-.11-.1-.21-.14-.32.95-.56,1.87-1.18,2.86-1.65,3.89-1.88,7.79-3.75,11.72-5.54.97-.44,2.09-.52,3.11-.87.42-.14.75-.54,1.12-.82-.05-.08-.09-.16-.14-.24-.37-.03-.74-.06-1.47-.13,1.2-.45,2.1-.79,3.1-1.16-.37-.2-.66-.35-1.12-.59,3.6-.95,7.06-1.86,10.52-2.77,0-.04-.01-.08-.02-.13-1-.09-2.01-.19-3.11-.29.65-.45,1.18-.82,1.71-1.19-.03-.05-.06-.11-.08-.16-1.61.29-3.22.58-4.83.87-.04-.08-.09-.15-.13-.23.44-.4.89-.8,1.33-1.2-.03-.1-.07-.2-.1-.3-1.36.34-2.72.68-4.08,1.02-.04-.07-.08-.14-.13-.22.52-.4,1.04-.81,1.77-1.37-3.07.12-5.54,1.22-8.04,2.4.61-.55,1.22-1.09,1.94-1.74-.38-.13-.58-.2-.97-.34.28-.21.49-.36.7-.51,2.32-1.64,4.94-2.53,7.66-3.25,1.2-.32,2.32-.97,3.62-1.54-1.14-.55-2.15-.25-3.08.18-1.8.82-3.57,1.7-5.32,2.61-2.42,1.25-4.81,2.54-7.21,3.81-.31.16-.62.31-1.07.23,2.43-1.62,4.86-3.24,7.29-4.86-3.48,1.06-6.53,2.8-8.96,5.5-2.06,2.29-3.92,3.6-7.27,4.59,2.7-2.4,5.39-4.8,8.09-7.2l-.15-.22c-.75.43-1.49.86-2.24,1.29-.06-.08-.12-.16-.18-.24,1.48-1.2,2.95-2.39,4.65-3.77-.93.23-1.59.4-2.25.57-.06-.13-.11-.25-.17-.38,4.92-2.15,9.25-5.47,14.42-7.11.06.1.11.2.17.3-1.18.97-2.36,1.94-3.76,3.09,1.59-.45,2.88-.82,4.18-1.18.03.06.05.12.08.19-1.27.7-2.55,1.41-3.82,2.11,2.88-.65,5.47-2.77,8.62-1.23-.86.43-2.09-.45-2.92.62,3.21.36,6.3.74,9.4,1.05.84.08,1.54-.07,2.33-.7.79-.63,2.1-.62,3.18-.87,1.88-.43,3.76-.87,5.65-1.26,1.13-.23,2.28-.35,3.41-.59.3-.06.55-.38,1.01-.72-1.77-.26-3.19-.47-4.83-.71,1.4-.72,2.58-1.32,3.76-1.92-.02-.09-.04-.17-.06-.26h-2.48c.97-.53,1.64-.89,2.46-1.33-.55-.18-.94-.3-1.33-.43.11-.19.23-.4.48-.84-1.94.32-3.68.6-5.42.89-.02-.09-.04-.18-.06-.26.23-.17.47-.34.96-.7-1.71.14-3.12.25-4.54.36l-.05-.26c1.4-.37,2.8-.75,4.2-1.12-.02-.12-.03-.24-.05-.36-2.6.23-5.21.46-7.9.7.04-.21.08-.46.14-.77-.43-.02-.8-.04-1.29-.07.25-.28.43-.49.72-.81-.52-.05-.92-.09-1.37-.13-.05-.24-.1-.49-.18-.89-.82.05-1.67.11-2.51.17-.02-.05-.05-.1-.07-.15.96-.35,1.92-.7,2.88-1.05,0-.1,0-.21,0-.31-.48,0-.96-.04-1.44,0-.51.05-1.01.18-1.58.28.6-.62,1.11-1.16,1.83-1.92h-3.5c.58-.39.89-.6,1.43-.96-1.46-.28-2.72-.52-3.97-.76-.01-.05-.02-.1-.04-.14,2.29-.5,4.58-.99,6.87-1.49-.03-.17-.06-.33-.09-.5-1.72.25-3.44.51-5.16.76-.02-.11-.04-.23-.07-.34,1.43-.25,2.86-.5,4.35-.76-1.42-2.2-1.41-2.15-3.89-1.77-1.01.15-2.06.1-3.08.03-4.15-.27-7.81.99-11.14,3.4-.28.2-.6.36-.91.53-.07-.11-.14-.21-.22-.32,1.13-.83,2.27-1.65,3.37-2.52.2-.16.24-.51.38-.77.1-.19.19-.44.36-.52,2.33-1.08,4.55-2.48,7.28-2.32,1.2.07,2.41.18,3.61.21.43,0,.87-.18,1.3-.28-.01-.13-.02-.25-.03-.38-1.19-.12-2.38-.24-3.91-.39.72-.28,1.15-.44,1.76-.68-.34-.2-.52-.31-.47-.28,2.13-.88,4.32-1.79,6.7-2.77-.49-.36-.75-.55-1.05-.78,1.02-.71,2-.67,3.12-.44,1.21.25,1.61,1.19,2.35,2.17-1.03-.29-1.89-.53-2.76-.78-.04.12-.08.24-.12.36,1.83.67,3.62,1.49,5.51,1.96,1.63.41,3.33.8,5.08.09.69-.28,1.58-.07,2.38-.08.43,0,.86,0,1.3-.14-1.98-.69-4.21-.1-6.31-1.36.74-.41,1.31-.72,1.94-1.08-3.21-1.11-6.36-2.2-9.52-3.3.03-.13.07-.25.1-.38.94.29,1.94.44,2.8.88,2,1.03,4.03.97,6.15.3-1.25-.17-2.49-.34-3.74-.52.01-.06.03-.12.04-.19,1.64-.19,3.29-.38,4.93-.57-.01-.17-.02-.35-.04-.52-1.39,0-2.79.13-4.16-.04-1.3-.16-2.78.07-3.84-.95.02-.13.04-.27.07-.4,1.56.08,3.13.17,4.69.25.02-.11.03-.21.05-.32-.86-.21-1.72-.43-2.64-.66.36-.25.68-.48,1.17-.82-.84-.22-1.49-.4-2.34-.62,1.3-1.26,3.06-.88,4.36-1.66-.26-.53-.5-1.04-.79-1.65.96-.36,2.01-.76,3.25-1.23-.73-.28-1.3-.49-2.14-.81,1.5-.49,2.7-.88,3.93-1.28-.13-.26-.15-.37-.19-.38-1.64-.29-3.28-.71-4.93-.82-2.03-.14-4.08-.03-6.15-.03,2.17-1.25,4.5-2.28,6.98-2.94,2.49-.67,5.02-1.18,7.52-1.92-.95-.94-2.08-.71-3.08-.55-2.13.34-4.23.87-6.34,1.3-.66.13-1.33.2-1.99.29-.03-.1-.05-.2-.08-.3,1.24-.38,2.46-.8,3.71-1.12,1.66-.43,3.51-.45,4.96-1.24,2.82-1.52,6.01-1.32,8.88-2.43.42-.16.79-.43,1.18-.65-.03-.11-.07-.22-.1-.33h-8.89c5.92-2.19,12.41-2.33,17.64-6.38-.15-.11-.43-.32-.83-.61,1.42-.6,2.76-.33,4.07-.16.81.11,1.59.53,2.38.53.82,0,1.7.45,2.52-.54.44-.53,1.68-.38,2.56-.56.16-.03.31-.13.44-.19-4.14-.07-8.28-.15-12.42-.22-.01-.17-.03-.33-.04-.5.68-.15,1.35-.41,2.03-.43,2.14-.06,4.29-.14,6.42,0,2.08.14,3.76-.76,5.53-1.61,1.16-.56,2.4-.93,3.61-1.39.19-.07.38-.18.53-.54-.74-.19-1.47-.39-2.21-.58.02-.12.05-.25.07-.37,1.96.19,3.92.38,5.94.58.05-.39.08-.72.11-.99.41.02.8.05,1.32.08-.52-.64-.94-1.16-1.37-1.69,2.89-1.69,6.16-1.52,9.22-2.48-.59-.09-1.19-.18-2.11-.33,4.21-1.67,8.36-1.75,12.51-2.07-1.01-.19-2.03-.33-3.02-.58-.99-.25-1.96-.6-2.89-1.18,3.12.42,6.25.84,9.37,1.25l.04.17c-.62.18-1.24.37-1.74.51,2.47,0,5.04,0,7.61,0,2.94,0,5.88-.05,8.82-.02,1.62.02,3.25.08,4.87.24,2.94.3,5.87.76,8.81,1.03,1.74.16,3.5.01,5.24.12,1.56.09,3.12.34,4.68.52.71.08,1.42.14,2.12.2.02-.09.03-.19.05-.28-1.55-.31-3.09-.69-4.65-.89-1.9-.24-3.82-.29-5.73-.49-2.9-.3-5.85-.09-8.72-.88-1.31-.36-2.77-.17-4.17-.26-.8-.05-1.59-.17-2.39-.26l.03-.34c3.2.2,6.4.4,9.6.58.87.05,1.75.03,2.63.02,4.72-.06,9.34.68,13.94,1.64,2.08.43,4.22.59,6.33.88,1.51.21,3.01.44,4.51.78-1.82.01-3.62-.81-5.49-.11,1.94.95,4.46.57,5.93,2.67-1.98-.28-3.9-.66-5.83-.8-1.95-.14-3.91-.03-5.87.16,1.8,1.05,3.75.59,5.63.77,1.87.17,3.77.18,5.63.44,1.87.26,3.71.82,5.58,1.08,1.85.26,3.74.32,5.64.36-1.55-.49-3.1-.98-4.65-1.47.05-.2.1-.4.16-.61,5.02,1.01,10.15,1.39,15.09,2.76,4.91,1.35,9.42,3.76,13.84,6.31.09-.18.18-.36.27-.54-3.52-2.84-7.7-4.53-11.7-6.6,1.11.42,2.28.74,3.33,1.28,3.26,1.65,6.53,3.29,9.69,5.13,1.09.63,1.8,1.91,2.82,2.71,2.33,1.83,4.75,3.55,7.13,5.32.09-.12.19-.25.28-.37-2.49-1.93-4.98-3.86-7.47-5.78.04-.06.08-.13.12-.19.58.3,1.16.6,1.74.91.04-.04.08-.08.11-.12-.33-.39-.66-.77-1-1.16.08-.09.16-.17.24-.26,8.07,5.24,16.19,10.41,21.4,18.97-.24-.43-.47-.86-.71-1.28l.28-.23c.93,1.08,1.87,2.15,2.8,3.23.08-.05.16-.11.24-.16-.49-.79-.97-1.58-1.46-2.37.07-.05.13-.1.2-.14.87,1.11,1.76,2.22,2.61,3.35.86,1.13,1.81,2.22,2.47,3.46.67,1.26,1.05,2.67,1.6,4.14.14-.25.23-.42.45-.82,2.15,7.61,3.14,15.18,3.18,22.97.93-1.01,1.12-2.98.85-4.75-.23-1.53-.05-3.12-.2-4.67-.18-1.97-.51-3.92-.78-5.88-.03-.21-.08-.43-.11-.64.1-.03.21-.05.31-.08.47,1.85,1.02,3.68,1.41,5.55.6,2.89,1.4,5.75,1.28,8.76-.15,3.78-1.4,7.09-4.08,9.78-1.44,1.44-2.99,2.77-4.55,4.08-.45.38-1.1.54-1.66.8-.06-.11-.13-.21-.19-.32.79-.55,1.59-1.08,2.36-1.64,2.37-1.71,4.03-4.01,5.41-6.53.52-.95.96-1.93,1.48-2.88.93-1.72.79-3.53.45-5.36-.11-.6-.21-1.2-.31-1.79-.11.02-.22.03-.33.05.09.82.08,1.66.29,2.44.54,2.07-.43,3.74-1.46,5.31-1.23,1.87-2.77,3.54-3.95,5.44-1.43,2.29-3.49,3.66-5.87,4.69-.9.39-1.85.67-2.89.81,3.17-1.58,6.25-3.21,8.13-6.43-4.16,5.24-10.65,6-16.06,8.84-.09-.18-.18-.36-.27-.54,2.15-.98,4.33-1.88,6.44-2.94,2.09-1.06,4.59-1.36,6.5-3.5-3.88,1.54-7.45,2.96-11.09,4.41,2.63-2.7,6.65-2.41,9.4-4.76-.98.33-1.96.65-2.94.98-.04-.08-.09-.16-.13-.23,1.14-1.12,2.34-2.18,3.41-3.37.79-.88,1.53-1.86,2.07-2.91.91-1.78,1.77-3.6,2.4-5.49.37-1.11.24-2.38.12-3.63-.67,3.44-1.38,6.82-3.96,9.52,2.34-6.11,3.81-12.26,1.4-18.45-.31,1.21-.79,2.58-.97,4-.13,1.09.13,2.23.21,3.34.3,4.16.45,8.3-2.38,11.81-.56.69-1.33,1.21-2.16,1.69,3.18-2.18,3.39-5.56,3.57-8.95-.09.27-.19.53-.27.81-.09.32-.15.65-.23.98-.36,1.56-.84,2.92-2.51,3.71-1.01.48-1.76,1.52-2.63,2.3-.2.18-.43.33-.85.41,4.36-3.8,4.12-8.48,2.81-13.62,0,1.32-.17,2.42.03,3.44.61,3.13-.21,5.77-2.34,8.07-1.64,1.77-3.26,3.55-5.11,5.17,1.06-1.31,2.06-2.68,3.19-3.92,1.23-1.34,2.44-2.65,3-4.42.03-.09-.01-.21-.03-.53-.89,1.05-1.67,1.97-2.46,2.89-.04-.03-.08-.07-.12-.1.49-.95.97-1.91,1.46-2.86-.09-.05-.18-.11-.27-.16-.31.26-.61.52-1.04.88.17-.95.4-1.73.44-2.52.16-3.19-1.15-5.9-2.99-8.37-1.4-1.88-2.92-3.66-4.59-5.38.47.87.94,1.74,1.41,2.61-.05.03-.1.07-.14.1-1.23-1.47-2.51-2.91-3.68-4.43-2.06-2.66-3.99-5.41-6.1-8.03-.71-.88-.56-1.85-.78-2.77-.49-2.1-1.05-4.14-2.23-6.11-.32,3.02-.04,5.76,1.76,8.13.77,1.02,1.75,1.88,2.53,2.89.96,1.24,1.81,2.56,2.7,3.85,2.01,2.92,4.08,5.79,5.99,8.78.95,1.49,1.59,3.17,2.32,4.78.16.36.14.8.01,1.26-.25-.55-.51-1.09-.75-1.65-1.19-2.72-2.6-5.23-4.96-7.21-2.6-2.18-4.91-4.71-6.68-7.64-.44-.73-1.18-.74-1.69-1.16-.97-.8-1.77-1.78-2.7-2.63-.76-.69-1.61-1.29-2.39-1.96-2.56-2.19-4.97-4.6-8.09-6.01-1.51-.68-3.1-1.2-4.65-1.79-.05.11-.1.22-.16.33.76.37,1.49.85,2.29,1.08,4.52,1.3,7.75,4.42,10.91,7.65.03.03,0,.14-.02.28-3.11-2.04-5.33-5.34-9.31-6.51,2.76,2.2,5.31,4.22,7.86,6.25-.09.12-.19.24-.28.36-.81-.63-1.66-1.21-2.41-1.9-1.5-1.4-3.29-2.26-5.15-3.08-2.48-1.08-4.85-2.42-7.29-3.58-.99-.47-2.05-.78-3.19-.93,1.73,1.05,3.46,2.11,5.19,3.16-.03.1-.07.2-.1.3-.42.03-.84.05-1.27.08,4.7,1.48,9.29,3.14,12.47,7.28-3.46-2.35-6.51-5.6-11.52-5.2.36.32.55.49.73.66.19.17.38.35.6.54-.22.08-.39.14-.63.23,2,.96,3.95,1.9,5.92,2.84-.42-.55-.86-1.14-1.3-1.72.04-.07.07-.13.11-.2.99.6,2.01,1.15,2.95,1.81,2.29,1.61,4.62,3.18,6.8,4.94,1.68,1.35,3.13,2.97,4.7,4.46,1.23,1.17,2.52,2.12,4.3,2.46.94.18,1.83,1,2.57,1.72.79.78,1.4,1.75,2.03,2.67.8,1.19,1.07,2.44.77,3.94-.2,1,.28,2.11.3,3.17.02,1.12-.12,2.25-.22,3.37-.03.41-.15.81-.17,1.22-.09,2.04-.15,4.08-.25,6.12-.02.35-.18.69-.54,1.01v-9.16l-.39-.03c-.07.48-.09.97-.21,1.43-.1.42-.29.82-.44,1.24-.36-.29-.73-.57-1.08-.86-.08-.07-.11-.18-.29-.26-.11,2.86,1.3,5.61.61,8.54-.32-1.22-.61-2.44-.97-3.65-.26-.86-.43-1.7-1.43-2.23-.64-.34-.94-1.3-1.44-1.95-.28-.37-.64-.69-1.13-.92,1.02,3.06,1.93,6.16,3.12,9.15.61,1.53,1.72,2.86,2.6,4.29.2.32.38.64.54.98.84,1.8,2.34,2.57,4.23,2.56,3.72-.02,7.2-1.13,10.63-2.44,1.11-.43,2.2-.92,3.28-1.42.69-.32,1.24-.64,1.6-1.5.32-.78,1.32-1.29,2.03-1.9,2.02-1.74,4.07-3.45,6.07-5.22.53-.46.92-1.08,1.43-1.7.06,1.24-1.32,2.96-4.34,5.73-1.76,1.62-3.73,3.02-5.6,4.52.1.14.21.28.31.41,2.29-1.69,4.57-3.37,6.91-5.1v.91c1.26-1.16,2.36-2.16,3.45-3.17-1.02,2.94-9.41,9.76-11.96,9.68,1.45-.97,2.88-1.92,4.3-2.87-.04-.07-.09-.14-.13-.21-.1.02-.22,0-.3.05-3.48,1.74-7.18,2.85-10.93,3.79-2.12.53-4.26,1.08-6.43,1.33-1.89.22-3.59-.52-4.6-2.24-1.3-2.21-2.48-4.49-3.72-6.74-.6-1.1-1.22-2.18-1.83-3.28-.09.04-.19.09-.28.13.96,2.31,1.92,4.63,2.87,6.94-.07.05-.14.1-.21.14-.5-.65-1-1.3-1.5-1.95-.05.03-.11.07-.16.1.38.9.75,1.8,1.13,2.7-.09.05-.17.1-.26.15-2.06-3.33-4.11-6.66-6.17-9.99,1.36,4.84,4.76,8.59,6.92,13-.08.06-.16.12-.24.18-1.32-1.67-2.63-3.34-3.95-5.01-.05.03-.11.07-.16.1.21.66.41,1.32.65,2.1-.38-.19-.71-.35-1.08-.53.28.74.57,1.48.85,2.23-.11.09-.22.17-.34.26-.29-.24-.65-.45-.87-.74-.8-1.06-1.37-2.39-2.38-3.17-1.52-1.19-2.03-3-3.2-4.38-1-1.18-1.34-2.84-2.06-4.13-.93-1.69-.85-3.85-2.56-5.18-.97-.75-1.68-1.83-2.7-2.99.08.53.12.77.17,1.09-.15-.1-.25-.13-.31-.2-1.87-2.21-4.15-3.9-6.54-5.54-2.32-1.59-4.85-2.33-7.54-2.66-1.95-.24-3.93-.14-5.89-.27-1.84-.13-3.57.32-5.31.8-.79.22-1.64.18-2.44.35-2.75.57-5.1,2.01-7.38,3.57-.69.47-1.38.95-2.02,1.52,1.97-.17,3.29-1.75,5.02-2.42.06.09.11.18.17.28-1.88,1.33-3.76,2.66-5.64,3.99.05.07.09.15.14.22l3.32-2.08s.06.06.09.09c-1.85,1.5-3.7,3.01-5.56,4.51.08.11.16.22.25.34,1.44.21,2.08-1.31,3.24-1.69.08.09.16.19.25.28-2.2,2.06-4.41,4.13-6.61,6.19.04.06.09.12.13.18.23-.14.46-.29.7-.43.51,2.42,1.48,4.63,3.04,6.61.15-.1.34-.23.63-.42.1.36.17.65.26.98-.27-.08-.47-.14-.78-.23,2.02,5.45,5.82,9.3,10.18,12.93.05-.5.09-.79.11-1.02,4.97,2.16,10.34,1.71,15.24,2.66-.35.06-.96.18-1.56.29.01.1.03.19.04.29,1.6-.21,3.2-.41,4.8-.62,0-.09-.02-.19-.03-.28-.77.06-1.53.12-2.3.19,4.05-.75,7.29-3.1,10.67-5.39-.09.87-.17,1.57-.25,2.28.07.03.14.06.21.09.96-1.03,1.91-2.07,2.88-3.09,1.01-1.06,2.19-1.71,3.72-1.58.16.01.42-.2.49-.37.42-1.05,1.18-1.1,2.15-.76.14,3.98-.73,7.6-3.52,10.65-1.08,1.17-1.9,2.58-2.84,3.88-.08-.06-.17-.11-.25-.17.93-1.32,1.87-2.64,2.8-3.96-.07-.06-.15-.12-.22-.18-1.01,1.23-2.02,2.47-3.03,3.7-1.05,1.28-2.02,2.62-3.16,3.8-1.14,1.17-2.45,2.18-3.68,3.27-.11-.09-.21-.18-.32-.27.3-.41.58-.85.91-1.24,2.3-2.77,4.62-5.53,6.92-8.31.2-.24.32-.56.33-.94-.53.66-1.07,1.32-1.59,1.99-.57.74-1.13,1.49-1.7,2.23-.54.71-1.09,1.42-1.63,2.13l-.46-.39c.15-.43.3-.87.52-1.52-.64.42-1.15.73-1.63,1.07-1.77,1.25-3.55,2.48-5.28,3.79-1.01.77-1.86,1.77-2.9,2.49-1.03.72-2.17,1.34-3.33,1.82-2.88,1.21-5.81,2.28-8.7,3.47-1.7.7-3.43.54-5.17.39-2.09-.18-4.18-.45-6.26-.66-2.03-.2-4.07-.37-6.09-.75,4.13-.01,8.22.97,12.35.36,0-.1.02-.2.03-.3-.55-.07-1.11-.16-1.66-.22-2.72-.3-5.44-.6-8.16-.89-1.12-.12-2.25-.2-3.38-.25-3.45-.15-6.51-1.42-9.47-3.08-2.08-1.17-4.23-2.21-6.35-3.31-.56-.29-1.15-.52-1.68-.85-3.04-1.91-6.5-2.75-9.82-3.96-.36-.13-.7-.3-.99-.63h4.21c-4.31-2.43-8.61-3.37-13.35-2.01.37.09.65.15.93.22,0,.11,0,.21,0,.32-2.34.12-4.69.24-6.99.36.82,1.09,3.58,1.61,4.84,1,.54-.26,1.27-.26,1.9-.21.92.07,1.85.24,2.74.47.4.1,1.26-.1.97.89-.02.08.44.36.72.47,1.93.79,3.87,1.53,5.79,2.34.57.24,1.06.68,1.53,1.11-3.43-.93-6.37-3.29-10.19-2.99.84.4,1.68.81,2.51,1.21l-.04-.04Zm-9.02-91.85c2.27,1.61,4.01,3.92,6.58,5.14-1.37-1.34-2.77-2.63-4.26-3.81-.69-.55-1.56-.88-2.35-1.31-.18-.27-.36-.55-.54-.82.05-.09.11-.18.16-.27,1.6.97,3.19,1.93,4.79,2.9.06-.07.12-.14.18-.21-.92-.78-1.79-1.64-2.78-2.31-2.03-1.39-4.44-1.43-6.78-1.65-.93-.09-1.85-.14-2.78-.21,0,.04,0,.08,0,.12,2.6.81,5.19,1.62,7.79,2.43Zm41.31,15.58c.5-.14,1-.28,1.5-.43,2.67-.8,5.29-1.92,8.01-2.31,3.38-.49,6.86-.39,10.29-.53.3-.01.61.01.89.11,1.79.61,3.57,1.29,5.37,1.86.84.27,1.75.51,2.62.48,1.26-.04,2.51-.35,3.77-.54.13-.35.28-.77.42-1.15h-5.33c-.01-.12-.02-.24-.03-.36,1.38-.15,2.77-.3,4.15-.45,0-.1,0-.19,0-.29h-4.75v-.23c.59-.16,1.18-.31,1.48-.39-2.56-.52-5.35-1.08-8.14-1.64-.03.09-.05.19-.08.28,2.26.85,4.52,1.7,6.96,2.62-2.04.83-3.72.19-5.12-.81-1.24-.88-2.5-1.32-3.94-1.31-1.48,0-2.96.14-4.44.22-.01-.1-.03-.2-.04-.29,2.54-.42,5.07-.84,7.61-1.26-8.35-.43-15.82,2.94-23.58,5.07.04.16.07.32.11.48,2.63-.58,5.27-1.17,7.9-1.75-.73.53-1.52.83-2.3,1.17-1.11.48-2.21.98-3.32,1.48-.33,0-.66,0-.99,0-2.05.04-4.11.09-6.16.1-.15,0-.31-.28-.67-.63h-2.24c-.01-.08-.03-.17-.04-.25.75-.35,1.49-.71,2.49-1.18-.54-.14-.81-.21-1.07-.27.07-.18.14-.37.28-.71-1.51-.19-2.9-.36-4.25-.52.46-.57.07-1.24-.87-1.43-1.27-.26-2.53-.56-3.8-.84-.84-.18-1.67-.39-2.52-.51-.81-.11-1.63-.12-2.5-.18,2.37,1,4.68,1.98,6.99,2.96-3.45-.26-6.61-1.89-10.12-1.79.64.3,1.27.6,1.91.9-.02.05-.04.11-.06.16-.69-.08-1.37-.16-2.06-.24.57.38,1.17.56,1.75.78,2.36.9,4.85,1.58,7.04,2.79,2.21,1.22,4.9.48,6.94,2.1.42.34,1.23.19,1.86.27,2.86.37,5.45-.71,8.09-1.51Zm-45.8,68.45c.14.69.04,1.08-.83,1.21-.75.11-1.47.51-2.14.89-.32.18-.49.62-.73.93.07.08.14.17.21.25,2.47-1.57,5.16-2.22,8.09-1.9-1.14.29-2.29.59-3.43.88,0,.14,0,.28.01.42.4.04.83.19,1.21.1,1.18-.27,2.33-.72,3.53-.92,1.51-.25,3.05-.36,4.58-.47.86-.06,1.74-.01,2.6-.01,0-.11.02-.23.02-.34-.82-.12-1.64-.3-2.47-.33-2.57-.11-5.14-.16-7.71-.26-.21,0-.41-.25-.61-.39.03-.11.06-.23.09-.34-.82.1-1.63.2-2.45.3,1.03-.37,2.06-.74,3.08-1.12,0-.08,0-.16,0-.24-.79.06-1.58.13-2.37.19-.01-.1-.03-.19-.04-.29,1.23-.21,2.46-.53,3.71-.59,2.17-.1,4.37.09,6.53-.07,1.32-.1,2.6-.64,3.9-.99-.02-.11-.05-.21-.07-.32-.19,0-.39-.05-.56,0-2.85.97-5.8,1.1-8.78,1.13-2.5.03-5.02-.02-7.49.3-2.89.37-5.74,1-8.44,0,1.18-.13,2.53-.28,3.88-.43l-.02-.39c-1.11-.1-2.22-.19-3.33-.29.32-.3.64-.29.94-.35,2.07-.46,4.12.32,6.22.06,1.92-.24,3.89-.05,5.85-.05,1.83,0,3.66,0,5.49,0,.35,0,.7-.08,1.38-.17-.81-.34-1.27-.67-1.75-.71-2.14-.2-4.3-.2-6.42-.52-1.9-.28-3.75-.86-5.62-1.35-1.36-.35-2.61-1.6-4.15-.47-.1.07-.3,0-.45,0-2.28.06-4.57.06-6.84.19-1.17.07-2.33.38-3.77.62.22-.66.25-1.16.51-1.44.6-.63.37-.93-.15-1.05.77-3.46,3.65-4.99,6.03-7,.08.07.16.14.24.21-.76.8-1.52,1.61-2.28,2.41.04.06.09.12.13.18.58-.25,1.16-.5,1.85-.79-.4.56-.7.99-1.19,1.7,1.31-.1,2.26-.19,3.2-.25,1.54-.1,3.1-.3,4.63-.23,1.75.08,3.48.46,5.23.62.53.05,1.08-.18,1.63-.28,0-.18-.01-.36-.02-.55-3.58-.36-7.15-.71-10.63-1.06,3.68-1.1,7.62.41,11.61-.59-.23-.11-.47-.22-.75-.35.34-.16.54-.28.75-.34,1.57-.47,3.36-.22,4.66-1.55.16-.16.59-.04.89-.06,1.54-.11,3.09-.21,4.63-.32-1.97-.12-3.93-.1-5.88.12-2.45.28-4.87.8-7.31,1.07-1.09.12-2.26.29-3.34-.38,2.86-.47,5.72-.94,8.58-1.41-.01-.07-.02-.14-.03-.21h-14.38c-.02-.07-.04-.15-.06-.22,2.23-.91,4.46-1.83,6.68-2.74-.03-.16-.06-.32-.09-.49-.65,0-1.31.05-1.95-.02-.3-.04-.75-.28-.81-.52-.07-.27.15-.7.37-.92.22-.22.63-.22.91-.39.42-.24.79-.54,1.33-.92-3.45-1-6.39.51-9.48.77,2.11-1.05,4.35-1.76,6.41-2.81,2.24-1.14,4.71-.59,6.99-1.19-.01-.1-.02-.2-.03-.3-2.8.21-5.59.42-8.46.63,1.8-.95,3.53-1.86,5.45-2.87-.55-.13-.81-.19-1.24-.29.43-.37.71-.62,1.21-1.05-.73.12-1.18.2-1.64.27-.02-.05-.05-.11-.07-.16.68-.38,1.37-.77,2.05-1.15-.02-.07-.05-.14-.07-.21-.4.04-.8.07-1.21.11,1.48-1.08,3.07-1.79,4.88-1.76,1.74.04,3.48.17,5.54.28-.4-.48-.57-.67-.73-.87-.2-.24-.39-.48-.59-.72.27-.18.54-.36.82-.53.14-.09.36-.11.44-.24.39-.6.75-1.23,1.18-1.94-1.1-.27-2.39-.58-3.68-.89.59-.39,1.24-.34,1.58-.64,1.17-1.04,2.59-.9,3.89-.82,2.82.17,5.62.58,8.43.86,1.35.13,2.71.19,4.07.29.79.05,1.57.17,2.36.15.85-.02,1.69-.18,2.53-.28.02.07.03.13.05.2-.56.31-1.12.61-1.68.92.05.16.1.31.15.47,1.74-.17,3.48-.37,5.22-.5,1.43-.11,2.87-.73,4.42.05-1.52.27-2.95.48-4.35.78-1.26.28-2.52.61-3.75,1.02-.73.24-1.4.68-2.09,1.04-.18.1-.35.22-.73.47,1.1-.1,1.96-.28,2.81-.23,1.12.06,2.23.38,3.35.41,1.47.03,2.95-.08,4.41-.21,1.64-.15,3.29-.29,4.89-.65,2.13-.48,4.22-1.16,6.32-1.75.77-.21,1.54-.41,2.32-.62l-.03-.13c-2.28.27-4.56.54-6.84.82-.02-.12-.04-.24-.06-.35,2.82-.84,5.64-1.67,8.72-2.58-.46-.24-.65-.33-.82-.44-.26-.16-.5-.33-.76-.49.24-.14.46-.33.71-.41.5-.16,1.02-.26,1.53-.39-.48-.44-.97-.7-1.48-.75-1.62-.13-3.25-.14-4.87-.26-2.7-.2-5.39-.45-8.09-.68-.51-.04-1.03-.19-1.52-.11-1.27.21-2.51.58-3.78.77-.97.15-1.96.07-2.94.17-2.2.23-4.38.59-6.58.73-1.87.12-3.76,0-5.63.03-2.77.05-5.53.11-8.3.23-1.99.09-4,.16-5.96.5-1.21.21-2.68.1-3.5,1.35-.49.74-1.05,1.26-1.94,1.46-.25.06-.6.4-.62.63-.07,1.15-.96,1.54-1.76,2-1.38.8-2.75,1.65-4.2,2.3-1.65.73-3.4,1.26-5.1,1.88.28-.41.65-.57,1-.78.35-.21.66-.47.99-.71-.06-.09-.11-.18-.17-.27-4.2,1.9-8.39,3.79-12.59,5.69.08.18.15.36.23.54,2.79-1.12,5.57-2.24,8.36-3.36.04.09.08.18.13.27-1.88.98-3.77,1.94-5.62,2.96-.9.49-1.9.94-2.2,2.37,1.72-.53,3.29-1.02,4.86-1.5.01.04.03.09.04.13-.62.42-1.23.85-1.85,1.27.04.08.09.17.13.25,1.37-.37,2.74-.73,4.35-1.16-.67.54-1.13.92-1.6,1.29.05.07.1.14.15.21,1.06-.22,2.12-.45,3.18-.67.05.1.11.2.16.3-1.42,1.08-2.84,2.15-4.28,3.24,2.24-1.08,4.42-2.13,6.59-3.18l.18.31c-1.76,1.49-3.6,2.83-5.1,4.66-1.7,2.06-3.92,3.79-6.77,4.3-.39.07-.77.28-1.13.46-1.13.54-2.26,1.11-3.4,1.64-.15.07-.43.02-.58-.08-1.27-.85-2.53-1.71-3.78-2.59-2.51-1.76-4.83-3.89-8.31-3.87.77,1.18,1.51,2.31,2.39,3.66-1.32-.92-2.43-1.69-3.54-2.46l-.34.4c.73.53,1.47,1.05,2.1,1.5-.81.43-1.32.7-1.98,1.06.46.4.77.75,1.15,1,1.12.74,2.22,1.96,3.4,2.04,1.79.12,3.12.97,4.78,1.64-1.57.89-2.42-.8-3.91-.61.75.64,1.38,1.18,2.08,1.79-.96.59-1.81,1.11-2.9,1.77.54.37.94.64,1.34.91l-.17.19c-.6-.14-1.19-.28-1.78-.43-.25.39-.46.72-.54.85-.06.89,1.29.48.89,1.84-.35,1.18-1.39.32-1.5,1.04,1.12.36,2.29.73,3.45,1.1-.01.12-.02.25-.04.37-.69.21-1.38.41-2.24.67.55.27.89.44,1.24.61-.02.12-.04.23-.06.35-2.71-.32-5.41-.64-8.25-.98.43-.3.72-.5,1.19-.83-.41-.11-.65-.26-.86-.22-1.1.19-2.19.42-3.27.67-.2.04-.46.19-.52.35-.46,1.24-1.45,1.78-2.64,2.11-.23.06-.43.23-.64.35.02.04.04.09.06.13.64-.15,1.27-.31,1.91-.46.18,1.68-.06,2.14-1.35,2.72-.44.2-.88.43-1.31.64.04.11.08.21.12.32.85-.15,1.7-.3,2.48-.44.2,1.52,1.22.61,1.92.68-.09.22-.17.41-.23.57.5.14.98.28,1.8.5-1.08.19-1.81.32-2.58.46.31.47.54.79.74,1.13.79,1.39,2.82,2.06,4.2,1.39.15-.07.34-.11.5-.08.87.16,1.74.37,2.62.51.24.04.51-.08.77-.12,0-.13,0-.26,0-.39-2.11-.31-4.22-.62-6.11-.9,1.11-.88,2.6-1.09,4.2-.32,1.8.87,3.62,1.16,5.37-.04.9-.62,1.79-.46,2.78-.11-.61.25-1.22.5-1.83.75.4.33.81.48,1.22.5,1.13.06,2.25.07,3.38.1.68.01,1.46.24,2.02-.02,1.85-.85,3.7-1.75,5.38-2.87,2.06-1.37,4.14-2.6,6.58-3.19,1.39-.34,2.71-.92,4.06-1.4-1.26-.1-2.47.08-3.69.18-.43.03-.88-.14-1.32-.22.23-.5.37-1.08.73-1.46.3-.32.84-.46,1.3-.59.73-.21,1.47-.35,2.37-.56-1.98-1.32-3.94-.4-5.82-.61.99-.23,2-.26,2.97-.44,1.53-.28,3.04-.69,4.57-.97.29-.05.65.25.97.38-.11.15-.21.3-.3.43,1.79.65,3.6,1.3,5.13,1.86-1.32.3-3.11-.02-4.66.79l.05.31c.9-.06,1.8-.13,2.7-.19-.96.53-2.25.56-2.49,2.03,1.68-.22,3.29-.3,4.84-.66,1.66-.38,3.38-.8,4.83-1.62,1-.57,1.83-1.01,2.95-.79.13.28.25.56.38.84Zm-12.96-50.73c.03-.1.05-.19.08-.29,1.35.55,2.69,1.11,4.04,1.66.05-.11.11-.22.16-.33-1.52-.72-3-1.5-4.55-2.13-1.71-.69-3.51-1.19-5.22-1.89-.58-.24-1-.86-1.49-1.3.08-.11.16-.22.24-.33,1.48.45,2.99.82,4.44,1.37,4.03,1.54,7.62,3.81,10.7,6.84.28.27.56.66.62,1.03.24,1.63,1.6,3.36,3.19,3.58,3.53.49,7.06.44,10.57-.3.53-.11,1.3-.26,1.61.01,1.1.95,2.33.49,3.49.51,1.93.03,3.85-.15,5.78-.19,1.21-.02,1.82-.99,2.69-1.55,1.12-.72,2.24-1.44,3.31-2.24.27-.2.29-.71.48-1.05.18-.31.36-.76.65-.85,3.08-1.05,6.21-.08,9.31-.19.07,0,.13.08.2.09,1.89.25,3.78.58,5.67.73,1.14.09,2.3-.16,3.45-.16.91,0,1.82.16,3.06.28-.49-.58-.73-.87-1.08-1.27.96.1,1.77.18,2.58.27.03-.14.06-.29.09-.43-2.1-.55-4.19-1.1-6.29-1.64-2.13-.54-4.24-1.12-6.39-1.58-2.12-.45-4.26-.88-6.42-1.1-2.13-.21-4.28-.15-6.43-.2,0-.12.02-.24.03-.36.76.08,1.51.15,2.27.23-.33-.22-.68-.34-1.04-.41-1.6-.33-3.25-.51-4.81-1-4.29-1.34-8.55-2.82-12.82-4.22-.77-.25-1.58-.38-2.38-.56-.02.07-.04.14-.05.21,1.08.47,2.15.94,3.27,1.42-.69.84-.03,1.01.43,1.28,1.46.86,2.91,1.74,4.36,2.61-.06.12-.13.24-.19.36-1.27-.56-2.55-1.13-4.05-1.8,2.42,2.48,5.19,3.65,8.26,4.2,1.13.2,2.1.67,2.96,1.74-.43.21-.77.53-1.12.52-1.59-.01-3.17-.15-4.76-.18-1.52-.02-3.05.05-4.57.08,0,.1,0,.2,0,.3,3.71.65,7.66-.61,11.29,1.42-2.88,0-5.66-.01-8.44.01-.51,0-1.03.15-1.54.26-.57.12-1.12.31-1.69.41-.62.11-1.27.11-1.89.25-2.09.45-4.13.35-5.99-.72-1.64-.95-3.2-2.05-4.78-3.09-1.34-.88-2.66-1.78-3.99-2.67.05-.09.09-.17.14-.26.97.51,1.94,1.01,2.9,1.53,1.99,1.07,3.95,2.2,5.98,3.21.56.28,1.3.19,1.96.27.02-.12.05-.25.07-.37-.34-.14-.68-.26-1-.42-1.67-.82-3.34-1.62-4.99-2.47-1.39-.72-2.71-1.59-4.12-2.25-2.28-1.07-4.65-1.98-6.93-3.05-1.27-.6-2.44-1.39-3.66-2.09l.07-.17c.97.25,1.94.49,2.9.74.03-.1.05-.19.08-.29-.66-.43-1.33-.85-2.21-1.42h1.94c-1.03-.55-1.85-.99-2.71-1.45.73-.14,1.36-.26,2.23-.43-1.24-.48-2.28-.89-3.48-1.35,1.93-.17,3.61-.32,5.28-.47-.01-.15-.03-.3-.04-.45-.89.1-1.78.26-2.68.27-.7,0-1.42-.13-2.09-.33-.21-.06-.3-.53-.53-.96-2.33-.51-4.65-1.75-6.87-3.21-.75-.49-1.52-1.01-2.1-1.67-1.74-1.97-4.04-2.58-6.55-2.89.77.62,1.53,1.23,2.3,1.85-.03.04-.05.08-.08.12-1.15-.44-2.3-.87-3.75-1.42.91,1.09,1.89,1.8,2.18,2.73.29.93.85,1.49,1.46,2.06.7.64,1.49,1.17,2.29,1.79-.48.16-.81.27-1.37.46.79.73,1.42,1.28,2.01,1.87.2.2.32.48.46.74.16.29.24.72.49.85,2.8,1.55,5.66,2.97,8.42,4.59,3.12,1.83,6.16,3.78,9.19,5.76,1.27.83,2.41,1.88,3.61,2.84-.27.14-.39.08-.5,0-2.46-1.55-4.89-3.15-7.38-4.64-2.9-1.74-6.32-2.34-8.99-4.75-3.04-2.74-7.07-3.77-11.11-4.31-.51-.07-1.11.51-1.67.79.2.4.41.8.6,1.21.11.25.15.53.29.76.18.31.41.6.66.84.19.18.47.28.84.49-.57.19-.98.32-1.42.47.32.25.58.46.94.74-4.78,1.32-9.74,1.54-14.04,4.51,1.19-.28,2.18-.51,3.17-.74,0,.04,0,.08.01.13-1.31.67-2.63,1.34-3.94,2.01.02.05.05.1.07.16,1.14-.33,2.28-.67,3.42-1,.03.08.06.17.09.25-1.12.58-2.24,1.17-3.36,1.75.02.05.04.09.06.14,1.54-.49,3.08-.98,4.62-1.47.03.09.07.18.1.26-.37.29-.75.59-1.35,1.06,1.15-.24,1.99-.41,2.83-.58l.06.2c-.65.36-1.3.72-1.95,1.08l.07.37c2.38,0,4.77-.02,7.15.01.86.01,1.86-.07,2.55.32,1.46.84,3.05.9,4.61,1.2.16.03.4-.32.73-.59,2.09.76,4.5,1.64,6.92,2.51l-.04.23h-3.6s0,.07,0,.11c3.18.26,6.35.51,9.53.77,0-.04,0-.09.01-.13-.7-.28-1.41-.55-2.11-.83.02-.07.05-.14.07-.21,1.53.25,3.05.5,4.58.75.03-.09.05-.17.08-.26-1.36-.56-2.71-1.11-4.35-1.78,1.12-.28,1.93-.47,3.12-.76-3.19-1.55-6.1-2.97-9.01-4.38,2.11-.63,3.96-.5,5.72.56,1.6.96,3.28,1.8,4.95,2.62,1.02.5,2.1.86,3.16,1.28.04-.1.08-.19.13-.29-1.48-.92-2.95-1.84-4.43-2.76Zm90.89-.88c5.43,1.79,10.51,3.93,14.38,8.57-4.25-2.1-8.37-4.01-12.91-4.68-.07.14-.15.28-.22.41,2.18,1.27,4.36,2.55,6.7,3.91-2.05-.04-3.79-.5-5.51-1.28-1.69-.76-3.46-1.35-5.41-1.23.45.39.93.71,1.46.89,2.32.79,4.63,1.62,6.98,2.29,1.75.5,3.58.73,5.35,1.18,1.02.26,1.98.72,2.97,1.09.03-.08.06-.15.09-.23-1.6-.79-3.19-1.57-4.79-2.36,2.41.49,4.79,1.05,7.14,1.71,2.39.66,4.82,1.23,6.99,2.54.45.27,1.02.36,1.38.48.49-1.8-.8-2.61-1.76-3.6-1.2-1.23-2.57-2.05-4.37-1.94-.76.05-1.56.14-2.29-.04-2.55-.62-4.15-2.56-5.8-4.46.98.52,1.96,1.05,3.15,1.69-.45-.67-.75-1.12-1.05-1.56.07-.04.13-.07.2-.11.82.38,1.64.77,2.46,1.15l.17-.29c-1.3-1.02-2.59-2.03-4.02-3.15.04.41.06.6.06.62-2.12-.88-4.21-1.8-6.35-2.62-1.39-.53-2.89-.77-4.24-1.37-2.94-1.31-6.08-1.66-9.19-2.19-.79-.14-1.61-.24-1.86-1.25.18-.17.36-.33.62-.57-4.26-1.21-8.44-2.41-12.62-3.6-.04.09-.07.18-.11.27,3.21,1.3,6.42,2.6,9.64,3.9-.06.16-.11.32-.17.48-.88-.24-1.79-.39-2.63-.72-3.38-1.35-6.59-3.22-10.55-3.09,2.01,1.04,3.92,2.04,5.83,3.03-.06-.29-.26-.38-.39-.52-.13-.16-.19-.38-.3-.6.17-.02.3-.08.38-.04,3,1.45,6.05,2.66,9.44,2.92.95.07,2.45-.45,2.73,1.29.01.07.35.06.52.14,2.04.9,4.08,1.78,6.09,2.74.87.41,1.65.99,2.47,1.5.06-.09.12-.18.17-.27-.26-.31-.52-.62-.85-1.01Zm-130.55,69.89c0,.07,0,.14-.01.2.86.21,1.72.44,2.58.62,1.96.43,3.91.98,5.89,1.21,1.81.2,3.67,0,5.5.05,3.59.12,7.19.31,10.78.47.58.03,1.16.14,1.73.08.38-.04.84-.24,1.07-.53.42-.51.7-1.14,1.04-1.72.02-.03.05-.07.08-.07,2.16-.28,4.24-1.16,6.48-.76.57.1,1.15.15,1.78.23-.86-1.22-2.2-1.1-3.36-1.34-3.29-.68-6.59-1.37-9.91-1.94-2.53-.44-5.01-.91-7.59-.82-.34.01-.69.04-1.03,0-3.45-.48-6.9-.97-10.35-1.45-.02.09-.04.19-.06.28,3.89.71,7.77,1.41,11.66,2.12-4.39,1.24-8.51-.32-12.73-1.1.32.4.66.71,1.06.83,1.63.5,3.29.91,4.92,1.41.83.26,1.63.63,2.44.96-.05.15-.1.29-.16.44-3.04-.66-6.08-1.32-9.12-1.97-.03.12-.06.24-.1.35.97.34,1.94.68,2.96,1.03-1.48.39-3.05-1.16-4.54.33.56.38,1.01.68,1.43.96-.84.05-1.66.09-2.47.14Zm-15.07-17.09l.29.33c1.08-.8,2.15-1.59,3.23-2.39.05.05.1.1.15.14-.54.64-1.08,1.29-1.7,2.04,2.09-1.34,4.02-2.57,5.95-3.81.1.12.2.23.3.35-1.36,2.04-2.72,4.08-4.13,6.19,2.63-1.82,5.1-3.54,7.57-5.27.17-.12.22-.41.35-.61.22-.36.38-.89.7-1.03,1.12-.49,2.31-.81,3.46-1.25.76-.29,1.49-.66,2.51-1.12-.73-.22-1.07-.32-1.48-.45.28-.25.48-.43.85-.77-1.88,0-3.51.03-5.14-.02-.38-.01-.75-.28-1.13-.43.25-.39.49-.79.87-1.39-1.57-.14-2.87-1.71-4.58-.53.14.15.28.31.29.32-1.36.24-2.78.3-4.06.75-2.44.86-3.16,1.44-3.47,2.23.61-.15,1.21-.29,1.8-.43l.06.2c-2.25,1.54-4.5,3.07-6.75,4.61.04.09.09.18.13.27.51-.16,1-.38,1.52-.46.35-.05,1.09-.84,1.01.4.45-.14.89-.28,1.56-.48-.74.78-1.31,1.38-1.88,1.98.08.1.16.2.23.3,1.53-1.04,3.07-2.08,4.6-3.12.02.03.05.06.07.09-1.05,1.11-2.1,2.22-3.15,3.34Zm97.81-63.62c-2.45-.15-4.73-1.32-7.36-.53.42.26.65.47.91.55,1.9.64,3.81,1.24,5.71,1.87,2.81.92,5.57,2.11,8.45,2.69,2.12.43,4.4.06,6.61.04,0-.14,0-.28.01-.43-1.46-1.33-3.38-.37-5.02-.81,0-.14,0-.28,0-.42,2.01-.11,4.01-.22,6.23-.34-.59-.12-.99-.29-1.38-.26-1.91.12-3.82.32-5.73.41-.96.04-1.92-.1-2.89-.16,0-.13,0-.26,0-.4,1.69-.34,3.38-.68,5.23-1.05-.61-.19-1.04-.33-1.68-.53,1.12-.35,2-.62,2.87-.9.01-.13.03-.26.04-.4-.93-.71-1.85-1.41-2.79-2.13.2-.08.42-.16.92-.36-1.44-.09-2.57-.13-3.69-.23-1.12-.1-2.23-.34-3.35-.38-1.9-.07-3.8-.06-5.7-.04-.19,0-.42.27-.53.46-.04.08.17.39.32.46.75.32,1.51.61,2.28.87.73.25,1.47.46,2.2.69l-.07.28h-2.52c.4.45.61.7.9,1.03Zm17.18,8.56c-.07.2-.14.39-.21.59,1.17.69,2.35,1.37,3.52,2.06l-.06.28c-.86-.06-1.73-.12-2.76-.2,1.98,1.1,7.04,1.95,9.37,1.92,2.05-.03,4.11.29,6.17.45,0,.11-.02.22-.02.33-1.18,0-2.36,0-3.53,0-1.18,0-2.37-.08-3.54.04-1.09.12-2.15.46-3.23.7,0,.1.01.2.02.3h5.26c0,.09,0,.17.01.26-1.28.24-2.56.48-3.84.72v.4c1.42.18,2.82.42,4.24.51.55.03,1.12-.35,1.69-.4,3.09-.25,6.03.38,8.91,1.47,1.1.42,2.29.58,3.44.86.04-.12.08-.23.12-.35-.93-.47-1.86-.93-2.8-1.4.02-.05.04-.11.06-.16,2.09.46,4.18.92,6.27,1.37.03-.12.06-.25.09-.37-1.38-.48-2.78-.89-4.13-1.46-1.48-.62-2.92-1.35-4.34-2.09-.73-.38-1.33-1.08-2.09-1.29-2.33-.64-4.71-1.06-7.05-1.67-.5-.13-1.16-.63-1.26-1.07-.13-.55-.43-.57-.76-.71-.24-.1-.5-.14-.75-.19-1.34-.28-2.68-.56-4.03-.83-.03.1-.05.2-.08.29.52.35,1.05.7,1.57,1.05-.03.06-.06.12-.08.18-2.06-.53-4.12-1.07-6.18-1.6Zm-99.43,19.89c1.06.24,1.91.61,2.75.59,2.63-.06,5.26-.26,7.89-.43.84-.05,1.68-.15,2.51-.23,0-.1.01-.19.02-.29-.34-.06-.68-.18-1.02-.15-1.28.08-2.09-.98-2.38-1.72-.46-1.18-1.13-1.84-2.19-2.25-1.3-.51-2.61-.97-4-1.49.26-.28.45-.49.89-.96h-4.65c.15.18.32.39.51.63-1.06.06-2.02.12-2.97.17,0,.09.01.18.02.27,1.03.29,2.06.59,3.08.88-.01.07-.03.15-.04.22-.29.08-.59.15-1.12.29.81.67,1.43,1.19,2.06,1.7-.03.07-.05.13-.08.2-1.34-.19-2.67-.39-4.01-.58-.03.09-.05.18-.08.27.89.41,1.79.82,2.68,1.22.73.33,1,.77.12,1.62Zm36.05-.97c-.67-.61-2.29.41-2.3-1.3,0-.03-.42-.03-.64-.08-.54-.12-1.47-.17-1.53-.41-.27-1.13-1.11-.77-1.67-.69-1.02.15-2,.54-3,.8-.93.23-1.87.42-2.8.63-.03-.12-.07-.24-.1-.35.26-.18.51-.36.97-.68-2.85.22-4.97,1.48-7.02,3.01,1.77-.32,3.55-.64,5.32-.96l.03.17c-1.8.6-3.6,1.21-5.4,1.81.03.12.06.25.09.37,3.05-.37,6.11-.75,9.16-1.12.02.09.04.17.06.26-.23.22-.47.44-.77.72,2.48.32,7.87-.91,9.6-2.17Zm83.73-29.54c.04.05-.01-.09-.1-.11-1.75-.34-3.5-.69-5.26-.97-1.66-.27-3.33-.46-4.99-.69-.55-.08-1.11-.24-1.66-.22-2.1.06-4.2.18-6.31.27-.02-.05-.04-.11-.06-.16,3.31-.85,6.62-1.7,9.94-2.55-.02-.1-.04-.21-.06-.31-5.75.98-11.49,1.95-17.24,2.93.01.1.02.2.03.3h5.8c0,.13,0,.27.01.4-2.28.12-4.56.23-6.84.35,2.3.31,4.62.57,6.93.53,1.39-.03,2.76-.63,4.16-.78,1.17-.13,2.4-.36,3.67.25-1.67.14-3.18.26-4.69.38.01.1.02.21.03.31,1.64.12,3.29.22,4.93.35,1.76.14,3.51.32,5.27.45,1.35.1,2.71.14,4.06.2.14,0,.3,0,.43-.06.63-.28,1.26-.57,1.92-.87Zm10.52,16.76c-2.19-.71-3.02-2.9-5.14-3.27-1.64-.29-3.23-.84-4.87-1.05-1.69-.21-3.42-.06-5.12-.21-1.54-.14-3.07-.47-4.58-.71.04.28.08.56.11.76,1.57.34,3.14.64,4.69,1.01,1.14.27,2.44.38,3.37,1,3.34,2.24,6.94,3.52,11.15,3.73-.41-.3-.66-.49-.95-.7.39-.17.72-.31,1.34-.57Zm-143.9,61.06c-.42.26-.58.4-.77.47-1,.36-2.15,1.19-2.97.95-1.27-.38-2.5-.4-3.7-.29-1.36.12-2.69.62-4.03.95.03.13.06.25.1.38.85-.13,1.69-.26,2.54-.39.03.08.06.16.09.23-.86.42-1.72.83-2.7,1.31.33.16.5.25.65.32-.34.28-.66.55-1.04.87,1.23.19,2.27.29,3.28.54.59.14,1.09.62,1.68.75,1.05.24,2.14.51,3.19.43,1.01-.08,2.26.01,2.93-1.11-.74-.61-2.08-.06-2.18-1.46,0-.05-.26-.08-.41-.11-.53-.11-1.07-.21-1.6-.31,2.05-.43,3.55-1.63,4.95-3.52Zm112.3-98.63c.02-.12.04-.24.07-.36-1-.24-1.99-.52-3-.71-3.11-.59-6.23-1.13-9.34-1.72-4.52-.86-9.01-1.82-13.65-1.75-2.29.03-4.59-.29-6.88-.41-.99-.05-1.98,0-2.97,0,0,.11-.01.21-.02.32.7.12,1.41.32,2.11.35,3.59.18,7.18.31,10.76.48.37.02.75.07,1.11.16,1.65.43,3.3.88,4.95,1.31,2.23.58,4.43,1.38,6.7,1.67,3.36.42,6.78.47,10.17.68Zm-43.67,100.02c0-.14,0-.28-.01-.41-.42-.04-.85-.12-1.27-.13-3.98-.02-7.98.14-11.85-1.14-.14-.05-.3-.02-.45,0-1.2.07-2.4.14-3.6.23-.24.02-.47.14-.71.22.01.06.03.12.04.18,1.11.2,2.22.4,3.37.6-.19.11-.32.18-.5.29.7.36,1.32.67,1.94.99-.03.05-.06.11-.09.16h-4.45c3.67,1.83,7.4,1.14,11.35.66-.33-.45-.5-.7-.64-.88,2.33-.26,4.6-.52,6.87-.78Zm43.72-.73c-3.18.12-5.42-1.48-7.75-2.87-1.19-.7-2.38-1.47-3.66-1.93-4.02-1.45-8.08-2.78-12.13-4.16-.32-.11-.65-.21-.97-.32l-.14.36c.55.29,1.09.63,1.66.86,2.79,1.13,5.69,2.05,8.37,3.39,2.82,1.42,5.45,3.22,8.15,4.89,1.45.9,4.85.91,6.47-.22Zm-82.2,16.56c.37.04.51.09.66.07.22-.02.44-.07.65-.12,2.33-.62,4.67-.95,7.1-.56,1.94.31,3.93.4,5.89.58.02-.14.04-.28.05-.42-2.07-.3-4.15-.59-6.22-.89,1.53-.39,3.05-.56,4.57-.62,2.14-.08,3.6-.47,4.34-1.33-.34-.02-.63-.04-.92-.05-1.62-.08-3.24-.18-4.87-.22-1.82-.04-3.66-.69-5.44.21-1.72.87-3.45,1.74-5.17,2.63-.21.11-.34.37-.64.72Zm51.32-89.6c-1.57-.65-3.19-1.21-4.7-1.97-1.12-.56-2.06-1.51-3.18-2.05-2.26-1.1-4.59-2.08-6.92-3.03-1-.41-2.09-.61-3.13-.91-.09.15-.17.31-.26.46,2.13,1.85,4.48,3.45,6.93,4.82,3.48,1.94,7.49,2,11.26,2.68Zm96.55,7.47c.07-.08.13-.15.2-.23-2.97-4.12-5.94-8.25-9.07-12.59-.34,3.87,4.62,12.09,7.63,13.06.05-.24.09-.49.14-.75.42.19.76.35,1.11.51Zm4.09,6.63c-.12,0-.24.01-.37.02,0,.36-.11.76.02,1.06,1.04,2.38,2.1,4.76,3.21,7.11.55,1.17,1.24,2.28,1.87,3.41l.37-.16c-1-5.11-1.64-10.34-5.58-14.41.7,1.66,1.4,3.33,2.1,4.99-.08.03-.16.07-.24.1-.46-.71-.92-1.42-1.38-2.13Zm-123.61-39.66c2.19.7,3.52,2.69,5.83,3.37,2.25.66,4.22,2.3,6.35,3.52-.2-.38-.37-.7-.64-1.22.81.14,1.43.24,2.28.38-.39-.47-.63-.91-.99-1.17-3.84-2.74-8.1-4.46-12.83-4.89Zm99.54,23.31c.04-.14.08-.28.12-.41-2.96-1.19-5.93-2.37-9-3.6,1.01-.1,1.96-.41,2.78-.21.98.23,1.31-.07,1.55-.97-3.48-.06-6.91-.29-10.2.81,0,.11,0,.23,0,.34,4.91,1.35,9.83,2.69,14.74,4.04Zm-97.81,36.25c0,.12.02.23.02.35.48.08.96.2,1.45.25,2.19.24,4.37.46,6.56.69.08,0,.17,0,.22.03,1.22.93,2.41.32,3.63-.12-.36-.12-.71-.24-1.29-.44,1.34-.47,2.46-.87,3.57-1.26-.02-.14-.05-.28-.07-.42-.79,0-1.59-.04-2.37,0-1.46.09-2.92.29-4.38.34-1.83.06-3.67-.03-5.5.04-.62.02-1.23.33-1.84.51Zm5.03,34.57l.08.41c1.28.19,2.57.59,3.84.52,1.12-.06,2.18-.49,3.39-.2,2.59.63,5.25,1.01,7.84,1.65,1.61.4,3.13,1.18,4.73,1.65,1.1.32,2.28.4,3.43.58.03-.15.06-.3.1-.45-2.77-.95-5.51-1.98-8.31-2.8-1.56-.46-3.22-.55-4.84-.82-2.2-.37-4.39-.9-6.61-1.09-1.19-.1-2.43.35-3.64.55Zm53.96,2.76c-.02-.1-.04-.21-.06-.31-2.54.31-5.08.62-7.62.93,0,.18,0,.36,0,.54,2.4.3,4.8.61,7.22.92-.68.19-1.36.38-2.04.56,1.34.17,2.63.2,3.92.17,1.24-.04,2.48-.16,3.72-.22,1.22-.05,2.44-.07,3.67-.1,0-.17,0-.34,0-.51-3.74-.34-7.48-.68-11.23-1.01,0-.06,0-.13,0-.19.8-.25,1.6-.5,2.4-.76Zm25.7-84.2c.62.28.99.59,1.35.59,1.01-.02,2.08,0,3-.32.83-.29,2.21.37,2.46-1.17,0-.04.13-.07.2-.07.72.01,1.48-.12,2.15.07,3.15.88,5.96,2.47,8.57,4.41.81.6,1.58,1.24,2.37,1.86-.04-.39-.2-.65-.42-.82-2.36-1.86-4.78-3.65-7.09-5.57-1.83-1.52-3.84-.73-5.73-.52-2.18.25-4.31.95-6.87,1.55Zm31.65,38.3c-.28-1.42-1.69-2.72-3.02-2.95-1.1-.19-2.19-.44-3.28-.65-1.53-.29-3.07-.57-4.6-.85,2.01,1.91,4.9,1.43,7.22,2.81h-2.57c2.62,1.25,5.54,2.02,5.77,5.67.57-1.96,0-3.6-1.46-5.02.12-.09.24-.18.36-.26.49.39.99.78,1.57,1.24Zm-14.51-33.33c-6.13-5.53-11.34-4.81-14.8-3.17,1.4-.1,2.79-.19,4.19-.29l.06.23c-.78.29-1.56.59-2.34.88,4.45.13,8.95-.46,12.9,2.35Zm-179.88,93.88c1.91,0,3.47-.72,8.05-3.69-1.98-1.9-3.99-.99-5.86.03.24,1.28-.92,1.19-1.44,1.52-.68.43-1.51.63-2.28.92.02.06.03.13.05.19,1.1-.14,2.2-.29,3.6-.47-.82.58-1.43,1.01-2.12,1.51Zm155.85-15.98c1.22-.52,2.5-.93,3.65-1.58,1.68-.94,3.14-2.22,5.15-2.56.89-.15,1.77-.58,2.56-1.04.55-.32.94-.93,1.56-1.57-5.43.5-9.3,3.34-12.92,6.75Zm-33.27-82.78c.04.18.09.36.13.54,1.52-.36,3.05-.69,4.56-1.1,1.28-.35,2.51-.95,3.81-1.17,2.55-.42,5.14-.55,7.68-.97,2.93-.48,5.84-1.13,8.37-1.63-1.55,0-3.5-.21-5.39.05-3.34.46-6.67,1.13-9.96,1.87-3.09.7-6.14,1.6-9.21,2.42Zm-84.28,40.13h2.81c-1.09.46-1.88.79-2.62,1.1.73.82,2.06-.76,2.55,1.03,1.81-.47,3.63-.93,5.45-1.4-.02-.12-.04-.24-.06-.36-3.39-1.18-6.78-2.35-10.67-1.29.92.44,1.94-.22,2.54.93Zm48.88,25.79c-1.08-.08-2.09.08-2.77-.85-.08-.11-.35-.06-.53-.1-2.64-.58-5.28-1.17-7.93-1.74-2.5-.54-5.01-.41-7.52.04.34.19.69.31,1.05.32,1.1.02,2.2.01,3.31,0,2.27,0,4.46.3,6.5,1.39,1.85.99,3.83,1.63,5.92,1.78.68.05,1.49.08,1.97-.85Zm-30.33-36.38c1.41.89,2.64.16,3.86.12,1.37-.05,2.74-.14,4.11-.1,1.51.04,3.01.19,4.52.29-.09-.3-.19-.44-.32-.46-3.06-.63-6.12-1.27-9.18-1.86-.28-.05-.9.24-.89.3.15.91-.71.74-1.1,1.06-.25.21-.55.36-1.01.66Zm119.98-31.71c-1.88-1.63-4.19-1.92-6.55-1.79-1.71.09-3.41.45-5.12.59-2.51.2-5.03.3-7.54.49-.67.05-1.32.26-1.98.4.73.26,1.44.31,2.13.25,2.46-.2,4.92-.47,7.39-.66,1.62-.12,3.24-.19,4.86-.23,1.37-.04,2.76-.12,4.12.03.92.11,1.8.59,2.7.91Zm-29.71,4.19c-.07.15-.15.3-.22.45,3.02,1.71,6.05,3.41,9.07,5.12.05-.1.11-.19.16-.29-2.25-3.09-5.36-4.66-9.01-5.28Zm-2.52,7.04c1.72,1.31,6.85,1.74,9.63.89-2.67-1.93-5.83-.42-8.69-1.17-.25-.07-.58.17-.94.28Zm-149.69,65.03c.03.09.06.18.08.27.34-.05.69-.08,1.03-.15,1.56-.33,3.11-.8,4.69-.96,1.55-.16,2.78-.69,3.82-2.12-.8.05-1.46.13-2.12.11-1.87-.05-3.16,1.42-4.88,1.8-.91.2-1.75.69-2.62,1.05Zm199.34-64.38c2.84,3.45,5.73,6.97,8.62,10.48-1.83-4.42-4.7-7.95-8.62-10.48Zm-96.17,33.11c.05.11.09.21.14.32,4.22-1.39,8.44-2.77,12.66-4.16-4.78-.28-8.65,2.23-12.8,3.84Zm-48.47-.55c-2.13-.74-3.95-.27-5.77.17-1.06.25-1.34.65-1.47,1.78,2.47-.18,4.82-.72,7.24-1.95Zm48.57-47.58c-2.14-.11-4.08-.68-5.73-2.13-.94-.83-2.37-.98-3.18-2.07-.22-.29-.54-.53-.85-.73-.77-.51-1.55-.99-2.33-1.49-.05.09-.11.18-.16.27.06.09.11.22.19.27,2.42,1.33,3.96,3.75,6.6,4.92,1.84.82,3.47,1.55,5.47.96Zm47.72,89.69c.15,1.15.41,1.36,1.43,1.16.29-.06.58-.12.86-.21,1.9-.64,3.8-1.3,5.7-1.95-.03-.13-.07-.25-.1-.38-2.63.46-5.26.92-7.89,1.38Zm70.78-52.56c-.22,4.16-.44,8.5-.67,12.84,1.06-4.31,1.85-8.63.67-12.84Zm-45.57-27.52c3.99.14,7.47,1.63,10.66,3.94-1.01-2.48-7.85-5.01-10.66-3.94Zm-91.95,71.4c-4.71,1.53-9.27,3.31-13.32,6.18,4.44-2.06,8.88-4.12,13.32-6.18Zm86.84-.34c-.05-.18-.09-.36-.14-.54-2.81.86-5.62,1.72-8.43,2.58,0,.17,0,.34.01.5.29.07.63.26.88.18,1.83-.6,3.64-1.25,5.45-1.9.75-.27,1.49-.56,2.24-.84Zm-26.47,1.24c0-.12.01-.24.02-.36-3.74-.72-7.47-1.45-11.21-2.17-.02.11-.04.22-.06.33,3.7.99,7.35,2.25,11.25,2.2Zm17.02-43.94c1.86.21,3.72.38,5.57.64,1.83.26,3.59,1.11,5.83.67-3.86-1.8-7.66-1.37-11.39-1.31Zm-30.37-31.67c3.49-.87,6.74-1.68,9.98-2.49-1.19-.59-9.52,1.46-9.98,2.49Zm-19.53-8.26c-3.76-.29-7.52-.58-11.46-.88,1.42,1.14,7.07,1.61,11.46.88Zm95.21,19.56c-.08.09-.17.18-.25.26.96,1.06,1.89,2.15,2.89,3.17,1.01,1.03,2.08,1.98,3.13,2.97-1.57-2.45-2.84-5.18-5.76-6.41Zm-141.61,70.03c.11.17.22.34.33.51,1.98-1.14,3.96-2.28,5.94-3.43-.05-.1-.1-.19-.15-.29-.64.23-1.27.47-2.11.78.5-.55.84-.93,1.18-1.31-.07-.08-.14-.16-.2-.24-1.66,1.33-3.33,2.65-4.99,3.98Zm118.92-74.13c2.66,2.11,3.97,5.15,5.5,8.05-.08-2.97-2.56-7.03-5.5-8.05Zm-71.47,37.14c2.66-.15,5.31-.37,7.71-1.69-2.75-.31-5.24.63-7.71,1.69Zm-14.3-61.59c0-.1-.02-.2-.02-.3-1.98.13-3.96.29-5.94.4-1.98.11-3.96.16-5.94.23l.02.39c3.97-.11,7.97.42,11.9-.72Zm19.6,74.08c0-.09.02-.19.03-.28-2.9-.87-5.74-2.11-8.9-1.03,2.96.44,5.92.87,8.87,1.31Zm46.5-63.93c2.78,1.07,5.44-.64,8.18-.35-2.76-.8-5.47-.24-8.18.35Zm-39.15,5.35c.05.11.1.21.15.32,3.06-.69,6.11-1.38,9.17-2.07-.03-.14-.07-.28-.1-.42-3.16.37-6.3.83-9.22,2.18Zm13.97-4.66c4.19-.54,8.39-1.09,12.84-1.67-4.63-.73-8.69.78-12.84,1.67Zm13.75,92.92h-8c2.68.7,5.35,1.29,8,0Zm67.07-58.62c.24-.04.48-.09.72-.13-.61-2.91-1.23-5.82-1.84-8.74l-.54.11c.56,2.92,1.11,5.84,1.67,8.76Zm-35.34-33.85c1.97,2.22,3.94,4.43,5.91,6.65.12-.11.25-.23.37-.34-1.68-2.5-3.63-4.75-6.28-6.31Zm-63.27,74.46c2.52,1.42,5.16.74,7.79.45-1.62-.82-3.37-.75-5.03-.49-.36.06-.88.26-1.34.25-.48-.01-.95-.14-1.42-.21Zm-38.16,21.91c0-.11.02-.22.02-.33-1.9-1.02-7.41-2.07-8.85-1.48,3.15.65,5.99,1.23,8.83,1.81Zm59.48-100.6c.89,1.29,3.98,1.57,7.23.73-2.34-.24-4.68-.47-7.23-.73Zm-1.47,90.53c-2.41-.76-4.83-1.45-7.4-1.17,2.35,1.09,4.84,1.36,7.4,1.17Zm-25.47-8.51c-2.42-1.17-4.97-.76-7.51-.38,0,.13,0,.25,0,.38h7.52Zm-25.27,4.53c-3.32.16-6.26,2.18-9.17,4.29,3.16-1.48,6.33-2.96,9.17-4.29Zm85.8-82.24c-3.27-.53-6.46.14-9.67.55,3.27.78,6.43-.96,9.67-.55Zm-68.91,90.97c.02-.12.05-.24.07-.36-2.77-.55-5.19-2.55-8.3-1.75,2.74.7,5.49,1.41,8.23,2.11Zm44.19-75.31c-2.26-.62-4.51-1.24-6.77-1.86,2.01,1.5,4.15,2.56,6.77,1.86Zm39.1,9.04c1.68,1.76,3.26,3.43,4.9,5.15-.21-1.85-3.22-5.1-4.9-5.15Zm-63.51,56.39h-2.18c0,.08,0,.16,0,.24h8.02c.01-.05.02-.1.04-.15-1.93-.28-3.85-.56-5.87-.85v.76Zm76.94-58.55c-.09.05-.19.1-.28.15.47.92.94,1.84,1.42,2.76.08-.04.15-.07.23-.11-.08-.34-.16-.68-.28-1.19.72.84,1.33,1.54,1.93,2.24.09-.07.18-.13.27-.2-.85-1.37-1.7-2.73-2.56-4.1-.1.06-.19.11-.29.17.06.3.13.59.24,1.11-.33-.4-.5-.61-.67-.82Zm-201.68,76.52c.02.09.03.19.05.28,2.59.03,4.66-1.4,6.91-2.34-.04-.12-.08-.24-.13-.36-2.28.81-4.56,1.61-6.83,2.42Zm201.84-71.27c.09-.04.19-.09.28-.13-.89-2.69-1.83-5.36-3.85-7.51,1.19,2.55,2.38,5.09,3.57,7.64Zm9.81,14.18c-.27,3.29.28,6.65-1.03,9.85,1.72-3.17,1.39-6.51,1.03-9.85Zm-193.75,55.58c0-.1.01-.2.02-.31-2.16-.16-4.33-.32-6.49-.47,0,.12-.02.24-.02.36,2.13.72,4.3.79,6.49.42Zm48.38-61.79c-2.06-.57-3.84-.43-5.71.3,1.02.64,3.11.52,5.71-.3Zm101.78-12.72c.04-.09.08-.18.12-.27-2.1-.95-4.2-1.9-6.3-2.86-.06.13-.11.26-.17.39,2.14.86,3.88,2.63,6.35,2.74Zm-2.49-26c-3.65-.47-7.06.62-10.51,1.38,3.46-.45,6.92-.91,10.51-1.38Zm-41.37,5.43c2.65-.48,5.29-.96,7.94-1.44-2.82-.49-5.4.4-7.94,1.44Zm-52.18,98.41c2.31.45,4.56.88,6.96,0h-6.96Zm110.05-81.64c.56.66,1.13,1.31,1.67,1.98.54.67,1.03,1.38,1.59,2.03.54.63,1.15,1.22,1.72,1.82.09-.08.17-.17.26-.25-1.85-1.77-2.7-4.43-5.24-5.58Zm-67.28-19.92c-3.24-.44-5.7-.04-6.77.97,2.39-.34,4.58-.65,6.77-.97Zm47.67,9.41c2.03.65,4.1.27,6.21.05-.65-.47-5.03-.58-6.21-.05Zm-50.43-15.2c1.28,1.18,6.6,3.19,8.04,2.82-2.64-.93-5.27-1.85-8.04-2.82Zm-27.93,88.13c-.08-.17-.16-.34-.24-.51-2.08,1.44-4.85.73-6.91,2.24.04.13.08.26.12.39,2.34-.71,4.69-1.41,7.03-2.12Zm59.48-86.41c-1.56-1.04-5.52-1.38-6.43-.62,2.21.21,4.32.42,6.43.62Zm-152.31,110.06c2.96-.96,5.73-1.86,8.56-2.77-1.21-.29-7.1,1.58-8.56,2.77Zm156.42-106.19l-.04-.3c-3.03.41-6.06.81-9.08,1.22.02.14.04.29.06.43,3.02-.45,6.04-.9,9.06-1.35Zm-8.28,86.2c.02-.12.04-.25.07-.37-2.01-.46-4.02-.91-6.03-1.37,1.78,1.43,3.88,1.54,5.96,1.74Zm-29.41-4.45c.07-.12.13-.25.2-.37-1.59-1.38-3.73-.92-5.53-1.57-.04.13-.08.26-.12.38,1.82.52,3.63,1.04,5.45,1.56Zm-1.52-34.1c-2.22-.37-3.9.85-5.74,1.6.05.13.09.27.14.4,1.87-.67,3.73-1.33,5.6-2Zm26.24-38.07c2.19-.54,4.37-1.08,6.56-1.62l-.07-.29c-2.3.05-4.44.78-6.49,1.91Zm4.96-20.14c-2.05-.33-4.09-.84-6.17-.32,0,.11,0,.22,0,.32h6.18Zm-13.85,3.8c-2-.54-4-1.07-6-1.61,1.84,1.12,3.74,2.02,6,1.61Zm-14.88,54.77c.06.18.12.36.18.54,1.78-.51,3.55-1.02,5.33-1.53-.05-.18-.1-.36-.15-.53-1.78.51-3.57,1.01-5.35,1.52Zm53.94-51.41c-1.15-.7-6.34-.33-7.27.45,2.37-.15,4.79-.3,7.27-.45Zm54.79,54.11c-.72,1.83-1.45,3.66-2.25,5.7,1.88-1.6,2.13-3.64,2.25-5.7Zm-176.86,13.72c.09-.13.18-.27.27-.4-1.52-1.03-3.05-2.06-4.57-3.1-.11.16-.21.32-.32.48,1.54,1.01,3.08,2.01,4.62,3.02Zm84.8,8.21c.02-.16.05-.32.07-.47-1.98-.3-3.96-.6-5.93-.9-.02.15-.05.29-.07.44,1.98.31,3.95.63,5.93.94Zm66.33-57.83c.2-.09.39-.18.59-.27-.7-1.26-1.39-2.52-2.09-3.77-.18.09-.35.19-.53.28.68,1.25,1.35,2.51,2.03,3.76Zm-73.43,51.02c-.02.14-.03.29-.05.43,2.03.22,4.06.43,6.1.65l.05-.44c-2.03-.21-4.07-.43-6.1-.64Zm-.4-71.54l.17-.45c-1.82-.71-3.64-1.41-5.46-2.12-.06.14-.11.28-.17.42,1.82.71,3.63,1.43,5.45,2.14Zm15.89,77.78c.06-.16.12-.33.18-.49-1.72-.63-3.43-1.26-5.15-1.89-.05.14-.11.28-.16.42,1.71.65,3.41,1.31,5.12,1.96Zm20.63-77.34c.03-.15.05-.31.08-.46-1.86-.29-3.73-.58-5.59-.87-.03.15-.05.31-.08.46,1.86.29,3.73.58,5.59.86Zm-43.72,73.21c-.01-.17-.02-.33-.04-.5-1.7.16-3.4.31-5.1.47.01.18.03.36.04.54,1.7-.17,3.4-.34,5.1-.52Zm-14.78,23.42c-.03.17-.06.35-.09.52,1.9.32,3.81.63,5.71.95.02-.13.04-.25.06-.38-1.89-.36-3.79-.72-5.68-1.09Zm-26.79,8.86l.02.57c1.56.22,3.12.11,4.68.09,0-.15,0-.3,0-.45-1.57-.07-3.13-.14-4.7-.21Zm65.61-105.79c-2.27-.52-4.54-1.11-6.87-.59,2.29.2,4.58.4,6.87.59Zm1.41,75.18c.64.66,1.66,1.72,2.68,2.78.16-.16.32-.32.48-.47-1.21-.88-2.41-1.75-3.17-2.3Zm39.29-31.49l.15-.41c-1.55-.55-3.1-1.11-4.65-1.66-.05.15-.11.3-.16.45,1.55.54,3.11,1.08,4.66,1.62Zm-30.69,39.61c-.02-1.24-1.61-2.41-2.93-2.18,1.02.76,1.9,1.41,2.93,2.18Zm-41.55,19.94c-.02-.11-.04-.21-.06-.32-1.83.48-3.65.95-5.48,1.43l.11.41c1.81-.51,3.62-1.02,5.43-1.52Zm-6.39-43.72c0,.1,0,.2,0,.3h5.04c-1.68-.55-3.36-.46-5.04-.3Zm20.36-53.49c-.03-.15-.06-.31-.09-.46-1.64.27-3.29.55-4.93.82.02.12.04.24.06.35,1.65-.24,3.31-.48,4.96-.71Zm44.55,86.48c2.13.25,2.38.1,2.77-1.55-1.02.57-1.9,1.06-2.77,1.55Zm-125.3,11.59l.06-.42c-1.46-.3-2.92-.61-4.38-.91-.03.14-.06.28-.09.42,1.47.3,2.94.6,4.41.9Zm45.04,5.14c0-.13-.02-.26-.02-.38-1.71.22-3.43.44-5.14.66.02.12.03.24.05.37,1.71-.21,3.41-.43,5.12-.64Zm-6.07-8.82c1.13,1.26,2.51.64,3.78.8.01-.11.03-.22.04-.33-1.27-.16-2.55-.31-3.82-.47Zm-72.67,9.72c.03.13.07.25.1.38,1.3-.38,2.6-.75,3.9-1.13-1.46-.22-2.79.04-4.01.75Zm86.39-84.51c-.03.13-.07.26-.1.39,1.49.32,2.97.65,4.46.97.03-.14.06-.29.09-.43-1.48-.31-2.97-.62-4.45-.93Zm42.86,54.98c.07-.14.13-.29.2-.43-1.37-.7-2.75-1.39-4.12-2.09-.06.11-.11.22-.17.32,1.36.73,2.73,1.46,4.09,2.19Zm60.85-64.24c-.08.09-.16.19-.25.28,1.21,1.02,2.43,2.05,3.64,3.07.09-.11.18-.22.26-.32-1.22-1.01-2.44-2.02-3.66-3.03Zm-99.49,72.1s-.02-.06-.03-.08h-4.96c0,.11,0,.22.01.33,1.66-.08,3.32-.16,4.98-.24Zm114.67-51.21c-.11.04-.22.08-.33.12.55,1.45,1.1,2.89,1.65,4.34.14-.05.27-.11.41-.16-.58-1.43-1.15-2.86-1.73-4.29Zm-81.63-34.65c-1.64-.2-3.16-.38-4.68-.56,1.44.91,2.97.93,4.68.56Zm-59.27,47.24c.06.17.12.34.19.52.99-.39,1.98-.78,2.96-1.17-.06-.15-.12-.31-.19-.46-.99.37-1.98.74-2.96,1.11Zm140.34-24.52c-.09.07-.18.15-.27.22.79,1.22,1.58,2.44,2.37,3.65.11-.07.23-.15.34-.22-.81-1.22-1.63-2.44-2.44-3.66Zm-69.29,60.19c.02-.12.04-.25.06-.37-1.54-.28-3.07-.55-4.61-.83-.02.1-.04.2-.06.3,1.54.3,3.07.6,4.61.9Zm-138.72,15.43c.02.15.05.29.07.44,1.21-.27,2.43-.54,3.64-.8-.03-.13-.06-.27-.09-.4-1.21.26-2.41.51-3.62.77Zm104.39-78.83c0-.12.01-.25.02-.37-1.51-.09-3.02-.17-4.53-.26,0,.11-.01.21-.02.32,1.51.1,3.02.2,4.53.3Zm3.64-20.05c.01-.09.02-.19.03-.28h-6.35c0,.09,0,.19,0,.28h6.32Zm-4.57-6.16v-.19h-3.69v.19h3.69Zm-78.61,76.28c-.06.12-.13.24-.19.36,1.22.37,2.44.73,3.67,1.1.04-.12.08-.24.11-.35-1.2-.37-2.39-.74-3.59-1.1Zm45.3.81c.01.14.02.27.03.41,1.21-.11,2.41-.22,3.62-.33-.01-.13-.02-.26-.03-.39-1.21.1-2.41.2-3.62.31Zm56.84-16.38c.04.13.08.27.12.4,1.2-.4,2.39-.8,3.59-1.2-.04-.11-.07-.22-.11-.33-1.2.37-2.4.75-3.61,1.12Zm-10.3,10.9c.02-.11.05-.22.07-.34-1.14-.18-2.29-.37-3.43-.55l-.06.41c1.14.16,2.28.31,3.42.47Zm38.42-59.1v-.35h-3.34c1.2.64,2.29.27,3.34.35Zm36.82,13.94c.09-.05.18-.1.27-.15-.55-1.18-1.09-2.37-1.64-3.55-.11.05-.21.1-.32.15.56,1.18,1.13,2.37,1.69,3.55Zm-134.3,75.68c.04-.12.09-.24.13-.37-1.18-.37-2.36-.75-3.53-1.12-.03.09-.06.19-.09.28,1.16.4,2.33.8,3.5,1.2Zm99.61-73.78c0-.11,0-.22,0-.33h-2.88c0,.11,0,.22,0,.33h2.89Zm56.3,11.79c.1,0,.2-.01.3-.02-.24-1.18-.49-2.37-.73-3.55-.13.03-.25.05-.38.08.27,1.16.54,2.33.81,3.49Zm-187.29,59.65c0,.14,0,.27,0,.41.99.07,1.98.15,2.96.22,0-.1.01-.21.02-.31-.99-.11-1.98-.21-2.98-.32Zm184.57-65.23c-.16.04-.31.07-.47.11.36.89.72,1.77,1.07,2.66.1-.04.21-.08.31-.11-.3-.89-.61-1.77-.91-2.66Z"/><path class="cls-1" d="m333.44,210.03v-2.8c.08-.02.17-.03.25-.05.17.72.39,1.44.49,2.18.3,2.23.7,4.45.78,6.69.09,2.57-.08,5.15-.21,7.72-.03.69-.17,1.44-.47,2.05-1.39,2.84-2.84,5.65-4.32,8.45-.64,1.22-1.38,2.38-2.09,3.56-.18.3-.39.57-.81.75.14-1.38.17-2.79.46-4.15.81-3.81.29-7.44-1.25-10.96-.56-1.28-1.49-1.8-2.83-1.5-2.52.57-5.07.82-7.63.64-2.13-.15-4.24-.53-6.36-.73-1.24-.12-2.5-.2-3.74-.14-1.94.1-3.69-.32-5.33-1.39-1.72-1.12-3.56-2.06-5.26-3.2-.67-.45-1.13-1.22-1.64-1.88-.97-1.26-1.91-2.55-2.94-3.94,1.95,1.29,3.79,2.77,6.24,2.6.18-.01.34-.22.59-.4-1.41-.85-2.71-1.64-4.01-2.42-.04.06-.08.12-.12.19.25.4.51.8.94,1.49-.51-.27-.79-.35-.99-.52-3.32-2.91-7.27-4.83-11.1-6.9-1.44-.78-2.87-.98-3.63.37.98.73,1.95,1.46,2.91,2.18-.08.12-.17.25-.25.37-.7-.43-1.42-.84-2.1-1.29-1.14-.75-2.28-1.42-3.74-1.3-.39.03-.99-.17-1.19-.47-.71-1.04-1.28-2.16-1.91-3.25.97-1.28-.21-2.39-.3-3.59-.06-.91-.37-1.81-.55-2.72-.07-.36-.09-.73.12-1.15.23,1.12.32,2.29.73,3.34.48,1.23,1.05,2.54,1.95,3.45.53.53,1.58.78,2.38,1.19.12.06.51-.13.54-.26.05-.21-.03-.51-.15-.7-.47-.76-1.02-1.48-1.48-2.24-.39-.66-.71-1.36-.85-2.17.89,1.31,1.77,2.61,2.66,3.92.1-.05.2-.1.31-.15-.03-.25-.05-.49-.08-.71,2.37,1.17,4.75,2.35,7.13,3.52.06-.09.12-.17.19-.26-2.06-2.02-4.12-4.04-6.18-6.05.08-.08.16-.16.24-.23,1.95,1.58,3.91,3.16,5.86,4.75.1-.11.21-.21.31-.32-1.08-.93-2.17-1.87-3.25-2.8.1-.12.21-.25.31-.37.53.31,1.05.62,1.58.93.02-.04.05-.08.07-.12-1.54-1.38-3.07-2.76-4.61-4.14.05-.06.11-.12.16-.18,1.58,1.21,3.16,2.42,4.74,3.63.07-.08.14-.17.22-.25-3.17-3.26-6.84-6.18-7.36-11.16.2.46.38.93.59,1.39,1.46,3.15,4.09,5.25,6.7,7.33,1.71,1.37,3.62,2.5,5.45,3.71,2.16,1.42,4.34,2.82,6.74,4.38-.06-.49-.08-.68-.12-1.04,1.76,1.05,3.43,2.05,5.39,3.22h-1.45c.04.08.08.17.12.25-.85.33-1.69.67-2.65,1.04,2.53,1.17,5.66,1.62,7.2,4.55-.85-.26-1.73-.53-2.62-.79,1.46,1.65,3.32,2.69,5.38,2.88,2.01.18,4.07-.22,6.1-.36,0-.11,0-.21,0-.32-.81-.13-1.62-.27-2.39-.39-.03-.47-.17-.96-.06-1.37.09-.32.48-.77.77-.79,1.28-.08,2.58-.04,3.86-.04.01-.1.02-.19.04-.29-1.57-.2-3.14-.4-4.9-.62.45-.72.63-1.35,1.05-1.63,1.93-1.28,1.69-3.19,1.64-5.07-.01-.49,0-.98,0-1.65.53.29.91.49,1.34.72.4-1.06.81-2.12,1.28-3.35.77.72,1.63,1.54,2.6,2.45v-3.03c.83.09,1.57.15,2.31.25.74.1,1.46.24,2.27.38-.02-.35-.05-.82-.09-1.55.62.74,1.06,1.26,1.5,1.78.08-.04.15-.09.23-.13-.14-.77-.29-1.55-.47-2.49,1.91,1.67,2.95,3.7,3.94,5.8-.3-1.12-.6-2.25-.89-3.37.1-.05.2-.09.3-.14,2.09,3.46,3.78,7.13,5.39,11.21Zm-34.69,1.17c0-.08.01-.16.02-.24-.29-.15-.58-.3-.87-.45-1.26-.7-2.53-1.39-3.77-2.11-1.32-.77-2.72-1.19-4.4-1.31.7.83,1.19,1.63,1.87,2.17.94.75,1.96,1.59,3.08,1.87,1.28.32,2.7.07,4.06.07Zm31.68-5.59c.55,3.72.17,7.55,1.45,11.16.08-3.79.6-7.64-1.45-11.16Zm-38.84-2.82c.06-.08.11-.15.17-.23-2.11-2.11-4.56-3.76-7.03-5.39-.06.09-.13.17-.19.26,2.35,1.79,4.7,3.57,7.05,5.36Z"/><path class="cls-1" d="m255.23,226.24c-.46,2.01-1.84,3.09-3.22,4-2.12,1.39-3.63,3.29-5.17,5.22-.92,1.15-1.99,2.17-3.01,3.25-.77.82-1.45,1.77-2.36,2.4-1.28.9-2.78,1.49-4.1,2.34-1.72,1.11-3.36,2.35-5.03,3.55-.25.18-.47.39-.7.58-.08-.09-.16-.17-.25-.26,1.59-1.72,3.19-3.44,4.78-5.17-.03-.05-.06-.1-.08-.15-.63.4-1.24.84-1.91,1.18-3.43,1.78-5.92,4.65-8.55,7.34-1.2,1.23-2.28,2.6-3.28,4-.36.5-.47,1.26-.47,1.9,0,1.51.28,3.03.17,4.52-.24,3.16-.66,6.3-1,9.44-.14-.01-.28-.02-.42-.04.1-1.44.28-2.88.28-4.33,0-2.27-.07-4.54-.19-6.81-.09-1.69-.31-3.36-.46-5.05-.13-1.46.56-2.46,1.73-3.29,1.52-1.07,2.96-2.25,4.38-3.47-2.84,1.39-5.69,2.77-8.53,4.16l-.2-.2c.11-.25.22-.5.43-.96-.71.2-1.23.35-1.85.53.01-.21.02-.4.04-.69-.24.07-.49.11-.7.22-1.83.99-3.79,1.81-5.42,3.06-.95.73-1.52,2.11-1.97,3.31-1.24,3.31-2.31,6.67-3.46,10.01-.09.27-.24.51-.51.73-.28-2.95,1.49-5.46,1.78-8.3-2.56,4.1-3.16,8.88-4.61,13.38-.14-3.26.54-6.37,1.76-9.36.86-2.1,1.95-4.1,2.81-6.19.5-1.22.49-2.71,1.17-3.78.73-1.15,1.92-2.09,3.06-2.9,2.59-1.82,5.28-3.5,7.93-5.23.27-.17.56-.3.84-.44.07.1.14.2.21.31-2.4,1.71-4.8,3.43-7.2,5.14.09.13.19.26.28.4,1.18-.8,2.39-1.54,3.52-2.4,3.31-2.5,6.56-5.09,9.91-7.54.73-.53,1.77-.72,2.7-.87.37-.06.83.4,1.21.6-1.55,1.47-3.25,3.08-4.94,4.69.05.07.11.15.16.22,1.55-1,3.1-1.98,4.64-3,.69-.45,1.36-.92,2-1.44.27-.22.7-.66.63-.84-.4-1.02.42-1.2.97-1.41,1.9-.74,3.79-1.52,5.75-2.07,2.46-.69,4.53-2.06,6.6-3.44,2.27-1.51,4.53-3.01,6.77-4.56,1.01-.7,1.96-1.49,3.05-2.34Z"/><path class="cls-1" d="m228.95,162.5c1.08-.99,2.08-2.1,3.27-2.93,2.2-1.53,4.74-2.17,7.33-2.84,4.1-1.05,7.48.49,10.85,2.26,4.2,2.21,6.87,5.89,9.06,9.95,1,1.86,1.94,3.76,2.84,5.68.68,1.43.14,2.35-.98,3.53-2.04,2.16-4.21,4.21-5.91,6.72-2.08,3.07-5.21,4.71-8.96,4.84-4.85.16-9.34-1.36-13.75-3.15-2.79-1.14-5.21-2.76-7.02-5.22-1.3-1.77-1.88-3.81-2.2-5.91-.69-4.53,1.48-8.12,4.02-11.56.06-.08.18-.13.27-.19-.34.61-.66,1.22-1.01,1.82-1.22,2.08-1.72,4.36-1.93,6.72-.21,2.38-.05,4.09.48,5.13-.84-5.89,2.63-10.46,4.6-15.53-.32.23-.65.46-.97.68Zm-.21,11.98c.07,4.62.54,5.32,1.84,8.06,1.19,2.5,3.04,4.21,5.77,4.89,1.87.47,3.74.99,5.63,1.38,2.08.43,4.18.4,6.25-.19,6.08-1.73,8.97-7.52,9.69-12.95.43-3.27-.25-6.45-2.14-9.22-.78-1.15-1.69-2.32-2.78-3.15-1.5-1.14-3.26-1.92-4.85-2.94-2.36-1.5-5.1-2.23-7.7-2.25-2.7-.01-5.37,1.47-7.07,3.67-1.85,2.4-3.88,4.84-4.04,8.16-.07,1.52-.39,3.03-.6,4.55Z"/><path class="cls-1" d="m285.26,192.96c.3.07.59.13,1.19.26-1.1-.92-1.99-1.66-2.88-2.4.04-.07.08-.13.12-.2.52.23,1.03.46,1.38.62-1.01-1.11-2.13-2.33-3.43-3.76,1.04.35,1.88.63,2.72.91.03-.07.06-.13.08-.2-1.11-.81-2.21-1.61-3.4-2.48,1.3.33,2.49.61,3.68.92.38.1.76.37.85-.33.01-.11.46-.25.68-.22.66.1,1.33.21,1.94.45.53.21.95.73,1.48.92,1,.35,2.05.56,3.08.84.05-.16.09-.31.14-.47-1.12-.32-2.25-.63-3.37-.95,0-.04,0-.08,0-.12,1.62,0,3.25.13,4.85-.04,1.51-.16,2.99-.62,4.42-1.21-1.85.14-3.71.29-5.33.41,2.09-.75,4.45-1.37,6.59-2.44,1.71-.85,3.13-2.28,4.73-3.39.59-.42,1.3-.67,1.95-1,.08.13.15.26.23.39-1.02.84-2.03,1.67-3.05,2.51.03.05.07.1.1.15,1.75-.75,3.49-1.5,5.53-2.37-.77,2.33-2.81,2.98-4.05,4.35,1.09-.04,3.35-1.49,6.81-4.32-.99,2.08-2.77,3.48-4.41,5,.05.09.1.17.15.26,1.09-.72,2.19-1.44,3.28-2.15.06.03.11.06.17.09-.3.53-.6,1.06-.9,1.59.05.04.1.08.15.12.71-.55,1.43-1.09,2.14-1.64l.18.15c-.55.88-1.1,1.77-1.73,2.76.68.2,1.23.37,1.77.53.28.79.59,1.67,1.03,2.95.43.08,1.24.24,2.09.4-.63,1.92-2.4,2.63-3.92,3.58-.15.1-.76-.27-.96-.56-1.16-1.63-1.53-1.79-3.41-1.35-1.48.35-2.97.69-4.64,1.08.14-.39.2-.56.32-.92-1.91.57-3.72,1.11-5.53,1.66-.04-.11-.07-.22-.11-.33.55-.19,1.11-.35,1.63-.6.56-.27,1.07-.63,1.34-.78-.05-.98-.08-1.67-.12-2.42.74-.39,1.49-.78,2.23-1.18l-.05-.2c-.95.17-1.9.34-2.85.51-.02-.05-.05-.1-.07-.15.43-.32.85-.65,1.28-.97-1.05-.77-1.66-.74-2.98.1-1,.64-1.95,1.41-3.03,1.87-1.67.72-3.43.41-5.13-.06-.14-.04-.28-.09-.42-.11-.07-.01-.14.04-.58.19.97.49,1.7.87,2.43,1.24-.03.09-.06.17-.08.26-1.71-.49-3.42-.98-5.12-1.47,2.24,1.96,4.93,3.04,7.67,4.01-.06.14-.11.29-.17.43-2.14-.75-4.27-1.5-6.46-2.27.51,1.82,2.21,2.33,3.44,3.31,2.25,1.79,4.55,3.52,6.83,5.27-.05.09-.11.17-.16.26-.54-.28-1.08-.57-1.94-1.02.32.9.56,1.56.92,2.58-3.93-3.01-7.67-5.86-11.4-8.71.03-.05.05-.11.08-.16Z"/><path class="cls-1" d="m242.62,227.83c3.15-1.9,6.19-3.73,9.23-5.56-.07-.13-.14-.25-.2-.38-3.06,1.27-6.12,2.53-9.19,3.8-.04-.07-.08-.15-.12-.22.93-.67,1.86-1.34,2.98-2.14-2.75,1.06-5.28,2.04-7.82,3.01-.08-.14-.15-.28-.23-.42,1.64-1.59,3.27-3.19,4.94-4.76,1.14-1.07,2.25-2.19,3.52-3.08,2.56-1.8,5.33-1.36,8.15-.6,1.52.41,3.12.52,4.68.77l.08-.44c-2.17-.41-4.34-.81-6.51-1.22.02-.16.04-.32.06-.48.93.08,1.86.11,2.78.25.96.14,1.92.31,2.84.6,1.61.51,2.98-.09,4.43-.65.99-.38,2.09-.71,3.13-.69,1.43.02,2.51-.51,3.61-1.3,1.38-.99,2.85-1.85,4.44-2.86-1.33,1.98-2.46,3.79-3.73,5.51-.73.98-1.8,1.4-3.07,1.64-1.47.28-2.87,1-4.25,1.63-1.81.83-3.61,1.72-5.36,2.68-1.1.61-2.2,1.3-3.13,2.15-2.17,1.96-4.22,4.04-6.34,6.06-.34.32-.75.56-1.23.72,2.48-3.94,6.49-6.33,9.67-9.68-.92.23-1.84.45-2.75.68-.04-.07-.08-.14-.12-.21.53-.41,1.07-.81,1.6-1.22-.07-.11-.13-.21-.2-.32-.88.54-1.87.96-2.63,1.63-2.59,2.27-5.46,4.03-8.71,5.16-.12.04-.27-.01-.55-.03Z"/><path class="cls-1" d="m216.6,237.98c.08-.36.13-.59.16-.71-1.46.19-2.88.37-4.64.59.88-.75,1.57-1.36,2.29-1.94.79-.63,1.66-1.18,2.38-1.87.7-.68,1.27-1.5,1.99-2.37-2.33-.44-4.16.28-5.98,1.08-.41.18-.8.42-1.21.61-1.16.54-2.34.98-3.6.27-.06-.03-.17-.04-.22-.01-1.94,1.19-4.21,0-6.22.85-.44.19-1.03.03-1.56.03-.02-.15-.03-.31-.05-.46.86-.28,1.73-.56,2.59-.84,2.36-.78,4.7-1.63,7.09-2.31,2.03-.58,4.14-.92,6.18-1.47,2.33-.63,4.62-1.4,6.94-2.08,2.85-.83,5.71-1.67,8.58-2.43.6-.16,1.27-.02,1.95.14-2.5,1.08-5.36,1.37-7.44,3.71,1.38-.16,2.5-.32,3.62-.39.41-.03,1.03-.3,1.16.52.02.1.62.13.95.14.63.02,1.25,0,1.93.25-.46.24-.91.47-1.68.86h2.81c-1.62.69-3.74,0-4.76,2,1.3.09,2.62.19,3.95.28,0,.12,0,.25,0,.37-1.64.18-3.28.35-4.92.53.01.1.02.19.03.29h3.07c.02.1.03.2.05.29-.87.13-1.76.21-2.62.4-2.06.45-4.14.86-6.16,1.48-1.8.55-3.52,1.37-5.28,2.03-.4.15-.87.12-1.39.18Z"/><path class="cls-1" d="m193,255.63c-1.9,1.27-3.8,2.53-5.7,3.8,2.45-2.66,6.14-3.9,8.12-7.33-.44.07-.75.12-1.17.19.16-.26.28-.48.57-.97-.83.23-1.41.39-1.98.55-.02-.04-.04-.08-.06-.12.82-.48,1.65-.96,2.46-1.46,1.37-.84,2.77-1.62,4.08-2.54,2.01-1.42,4.47-1.57,6.65-2.5,1.66.69,3.16-.3,4.72-.5,4.49-.58,8.53-2.35,12.09-5.15.46-.36.77-.92,1.12-1.4.76-1.05,3.42-1.87,4.68-1.27-1.05.6-2.05,1.09-2.94,1.71-1.78,1.23-3.41,2.71-5.28,3.78-1.95,1.13-4.12,1.88-6.18,2.84-2.61,1.21-5.18,2.49-7.8,3.66-.88.39-1.88,1.06-2.78,0-.16-.19-.15-.52-.22-.82-2.36,2.21-4.78,4.46-7.19,6.71.06.07.12.14.18.21,1.93-1.52,3.86-3.05,5.79-4.57.07.07.14.15.21.22-1.84,1.85-3.68,3.69-5.53,5.54.08.09.16.18.24.27.66-.47,1.31-.94,1.97-1.41-2.85,3.09-4.66,7.09-8.57,9.51.62-1.5,1.14-2.79,1.71-4.17-1.68-.23-2.12,1.36-3.5,2.06,1.63-2.38,3.07-4.49,4.51-6.6-.07-.08-.14-.16-.22-.24Z"/><path class="cls-1" d="m190.36,224.59c-.51-.32-1.02-.63-1.53-.95,0-.11.02-.22.03-.33.98.1,1.97.17,2.95.3.58.08,1.15.3,1.74.35.21.02.43-.36.66-.38.83-.06,1.72-.22,2.5-.02,1.89.49,3.73,1.16,5.59,1.76-.03.12-.06.24-.1.36-1.24-.26-2.47-.53-3.71-.79-.02.06-.04.12-.06.17.62.29,1.24.57,1.92.88-.24.19-.44.35-.68.54.16.17.31.33.54.58-.8.15-1.48.27-2.36.43.59.28,1.03.48,1.41.66-.7.37-1.35.94-2.07,1.05-1.04.16-2.12,0-3.19-.04-.34-.01-.68-.07-1.01-.1-.02.1-.04.2-.07.31.45.21.89.43,1.34.64-.03.11-.07.21-.1.32-1.12-.31-2.24-.59-3.35-.94-1.84-.58-3.63-1.31-5.5-1.78-.76-.19-1.66.13-2.48.26-1.28.21-2.56.5-3.85.68-.39.05-.82-.16-1.24-.42,2.73-1.29,5.69-1.27,8.89-1.55-.64-.53-1-.83-1.36-1.13,0-.11.01-.23.02-.34,1.64-.09,3.29-.18,4.93-.27l.14-.24Z"/><path class="cls-1" d="m196.02,241.54c-.53.63-1.07,1.27-1.6,1.9,2.8-.94,5.32-2.28,7.33-4.48.07.08.14.16.21.23-.53.89-1.07,1.79-1.6,2.68.05.06.09.12.14.18.99-.66,1.98-1.32,2.98-1.98.07.07.14.15.21.22-.94.77-1.88,1.53-2.82,2.3.14.15.28.3.42.45,2.14-1.77,4.28-3.53,6.42-5.3.08.07.16.14.24.21-1.35,1.49-2.69,2.97-4.04,4.46.05.06.1.12.16.18,2.07-1.99,4.14-3.99,6.22-5.98-3.92,5.86-9.02,10.27-15.77,12.71.14-.26.25-.51.4-.73.17-.25.39-.46.79-.93-.75.3-1.25.47-1.73.68-.47.2-.92.43-1.38.64l-.19-.32c.75-.45,1.5-.91,2.26-1.35.76-.45,1.53-.9,2.29-1.35-.04-.08-.09-.17-.13-.25-.98.53-1.96,1.06-2.95,1.58-.06-.09-.11-.17-.17-.26.79-.82,1.59-1.64,2.38-2.46-.06-.09-.13-.18-.19-.27-2.33,1.49-4.55,3.29-7.75,2.87,2.15-2.6,5.23-3.79,7.64-5.86.08.07.16.15.24.22Z"/><path class="cls-1" d="m165.74,244.08c.5-.71.98-1.44,1.49-2.14,2.4-3.32,5.76-4.95,9.72-5.61,2.23-.37,4.43-.99,6.66-1.41.96-.18,1.96-.05,2.93-.19,1.49-.21,2.97-.54,4.46-.78.67-.11,1.35-.11,2.08.11-.42.09-.9.07-1.24.29-1.87,1.19-4.01,1.43-6.09,1.95-2.1.53-4.07,1.6-6.11,2.39-1.09.42-2.21.73-3.32,1.08l-.17-.33c.11-.25.21-.5.32-.77-4.38.25-7.68,2.51-10.42,5.82-.11-.14-.21-.27-.32-.41Z"/><path class="cls-1" d="m175.03,251.96c.19-.94.84-1.49.84-2.55,0-.78.9-1.57,1.47-2.47h-.89c.86-2.66,3.99-5.9,8.23-8.43-1.7,2.22-4.08,3.43-5.41,5.59.09.1.18.2.27.3,1.93-1.4,3.87-2.79,5.8-4.19l.08.11c-1.47,1.69-2.93,3.39-4.4,5.08.11.1.21.2.32.31.65-.54,1.3-1.08,1.94-1.62.07.06.14.12.21.18-.32.43-.64.86-.96,1.29.05.05.1.11.15.16l1.99-1.19c.06.08.12.16.18.25-2.1,2.35-3.45,5.49-7.1,6.23,1.02-.99,2.04-1.97,3.06-2.96-.07-.07-.13-.14-.2-.21-1.86,1.37-3.72,2.74-5.58,4.11Z"/><path class="cls-1" d="m93.42,166.65c.29.83-.18,1-.74,1.13-1.87.45-3.77.83-5.6,1.4-1.17.37-2.25,1.02-3.37,1.55-.06-.12-.12-.25-.18-.37,2.03-.94,4.07-1.87,6.1-2.81-.03-.11-.07-.22-.1-.33-1.86.59-3.72,1.18-5.58,1.77-.04-.09-.08-.17-.12-.26.77-.53,1.53-1.05,2.3-1.58-.04-.1-.08-.2-.13-.3-.97.22-1.94.45-3.08.71.44-.36.75-.62,1.07-.89-.04-.1-.08-.19-.12-.29-.59.06-1.17.12-1.88.2.38-.35.7-.64,1.28-1.17-1.28.23-2.23.4-3.18.57-.02-.06-.04-.12-.06-.19.48-.25.97-.51,1.45-.76,1.02-.52,2-1.16,3.07-1.51.99-.32,2.12-.53,3.13-.37,1.1.17,2.13.81,3.29,1.29-.26.3-.44.51-.77.9,1.97.24,3.84.47,5.87.71-1,.21-1.86.4-2.66.57Z"/><path class="cls-1" d="m235.25,260.34c.16-3.47,2.73-6,3.73-9.16,1.08-3.39,3.79-5.53,5.75-7.87,0-.62-.15-1.09.02-1.32,1.19-1.59,2.36-3.21,3.71-4.65.79-.84,1.9-1.37,2.87-2.04.1.09.2.18.31.26-.24.5-.47,1.01-.71,1.51,4.38-3.24,7.38-7.76,10.7-11.97.1.08.19.15.29.23-.63.84-1.37,1.62-1.87,2.53-2.43,4.41-6.11,7.79-9.51,11.36-2.43,2.54-5.32,4.64-7.96,6.99-.54.48-.94,1.16-1.29,1.81-1.4,2.56-2.79,5.11-4.1,7.72-.74,1.49-1.3,3.07-1.95,4.61Z"/><path class="cls-1" d="m180.34,222.26c3.04-1.48,5.94-3.19,9.46-2.82,1.85.19,3.62.55,5.3,1.54,1.54.91,3.33,1.42,5.01,2.1.4.16.81.31,1.19.57-1.6.25-3.01-.41-4.41-.96-1.9-.74-3.85-1.14-5.88-1.2-1.24-.04-2.49-.3-3.72-.19-2.29.21-4.55.62-6.95.96Z"/><path class="cls-1" d="m282.99,160.6c.76,2.01.11,4.15.44,6.22.42-.21.8-.41,1.13-.57-.41,2.41-1.14,4.75-1.11,7.09.03,2.25-.94,3.85-2.16,5.51.39-1.48.87-2.94,1.14-4.44.34-1.86.79-3.71.1-5.64-.3-.85-.09-1.88-.09-2.83,0-1.37-.02-2.74,0-4.11,0-.43.14-.85.21-1.28.11.02.22.04.33.06Z"/><path class="cls-1" d="m279.53,188.47c4.47,3.9,8.78,7.65,13.06,11.39-2.54-.33-11.89-8.38-13.06-11.39Z"/><path class="cls-1" d="m192.85,219.12c1.56-.8,9.73,1.44,11.09,2.96-1.12.66-6.83-.85-11.09-2.96Z"/><path class="cls-1" d="m181.84,249.59c2.37-3.76,6.38-5.11,10.27-6.65-.82.58-1.66,1.13-2.47,1.74-1.69,1.28-3.34,2.63-5.06,3.88-.77.56-1.65.97-2.49,1.44-.09-.14-.17-.28-.26-.42Z"/><path class="cls-1" d="m251.2,261.68c-.64-3.73-1.25-7.47-1.93-11.2-.17-.94-.68-1.82-.86-2.76-.14-.76-.03-1.56-.03-2.34.11,0,.23,0,.34-.01.67,2.68,1.36,5.35,2,8.04.64,2.73.97,5.48.48,8.28Z"/><path class="cls-1" d="m167.53,235.13c-4.21,4.09-9.7,3.92-14.99,4.4,1.22-.37,2.43-.8,3.67-1.08,1.31-.29,2.66-.36,3.97-.66,1.26-.29,2.49-.72,3.7-1.16,1.24-.45,2.44-.99,3.66-1.5Z"/><path class="cls-1" d="m246.55,244.79c3.96-3.64,8.38-6.65,12.94-9.47.07.09.14.17.21.26-1.28.99-2.57,1.98-3.85,2.98-2.47,1.94-4.93,3.9-7.42,5.81-.47.36-1.1.52-1.66.77l-.22-.36Z"/><path class="cls-1" d="m195.37,203.06c-3.71-.92-6.22-4.07-10.04-5.3,1.4-.39,5.75,1.27,7.95,2.82-.21.06-.37.11-.77.24,1.07.71,2.02,1.33,2.98,1.96-.04.09-.07.19-.11.28Z"/><path class="cls-1" d="m309.42,155.71c.88,3.72,2.54,7.28,2,11.29-.14-.67-.36-1.33-.39-2.01-.06-1.1-.41-1.99-.99-2.98-1.11-1.9-1.37-4.1-.62-6.3Z"/><path class="cls-1" d="m249.76,260.93c2.11,4.29,2.37,8.97,2.8,13.62-1.04-4.53-2.09-9.06-3.13-13.59.11-.01.22-.02.32-.03Z"/><path class="cls-1" d="m264.86,193.29c1.8-3.64,2.91-7.48,3.27-11.7.96.79.68,1.76.55,2.48-.6,3.33-1.36,6.62-3.81,9.21Z"/><path class="cls-1" d="m188.76,217.69c-3.82,1.29-7.11,4.03-11.37,4.12,3.63-1.8,7.4-3.23,11.37-4.12Z"/><path class="cls-1" d="m168.22,239.13c-1.59,2.36-3.1,4.8-5.45,6.53.96-2.89,2.83-5.02,5.45-6.53Z"/><path class="cls-1" d="m259.09,261.24c.9-2.76,1.79-5.52,2.69-8.28.49,2.51-.6,6.19-2.28,8.39-.14-.04-.27-.07-.41-.11Z"/><path class="cls-1" d="m290.44,174.07c-2.53,2.15-5.14,4.36-7.75,6.58,1.56-3,4.82-5.68,7.75-6.58Z"/><path class="cls-1" d="m249.13,235.56c1.23-1.33,2.42-2.69,3.71-3.96.73-.72,1.61-1.28,2.53-1.79-1.24,2.79-3.92,4.05-6.01,5.94-.08-.06-.15-.13-.23-.19Z"/><path class="cls-1" d="m240.86,279.91c1.45,3.69,2.94,7.46,4.43,11.24-1.55-2.36-4.72-9.11-4.43-11.24Z"/><path class="cls-1" d="m182.85,199.61c-.1-.19-.2-.38-.48-.89,3.08.72,5.47,2.1,7.59,4.02-2.38-1.05-4.77-2.11-7.15-3.16,0,0,.04.04.04.04Z"/><path class="cls-1" d="m232.9,257.78c-.22,2.36-.44,4.71-.66,7.07l-.39-.03c-.78-2.44-.17-4.76.62-7.07.14.01.28.02.42.03Z"/><path class="cls-1" d="m172.34,232.1c-1.83,1.37-3.95,1.71-6.12,1.85,1.69-1.75,4.01-1.51,6.12-1.85Z"/><path class="cls-1" d="m279.11,200.16c-2.29-2.17-4.09-4.67-4.78-7.85,1.59,2.62,3.19,5.23,4.78,7.85Z"/><path class="cls-1" d="m233.91,251.19c-.54,1.95-1.08,3.89-1.7,6.12-.64-2.06.05-4.68,1.7-6.12Z"/><path class="cls-1" d="m279.91,213.18c2.3.88,3.35,2.88,2.54,4.9-.85-1.64-1.72-3.32-2.54-4.9Z"/><path class="cls-1" d="m243.4,279.5c-.2-1.98-.4-3.96-.62-6.13,1.16,1.1,1.64,4.83.62,6.13Z"/><path class="cls-1" d="m269.19,181.06c1.86,1.34,1.71,2.23,0,5.35v-5.35Z"/><path class="cls-1" d="m264.26,251.17c.9-2.92,1.8-5.84,2.7-8.76l.51.16c-.94,2.9-1.88,5.8-2.82,8.7-.13-.03-.25-.07-.38-.1Z"/><path class="cls-1" d="m273.53,189.62c-1.51,2.35-.03,4.78-.38,7.02-1.16-1.56-1.64-5.58.38-7.02Z"/><path class="cls-1" d="m288.88,167.59c-1.79,2.9-3.4,5.5-5.01,8.1.91-3.05,2.59-5.62,5.01-8.1Z"/><path class="cls-1" d="m269.42,292.24c-1.28-2.69-2.57-5.38-3.85-8.07.15-.07.3-.14.45-.21,1.25,2.7,2.5,5.41,3.75,8.11-.12.06-.24.11-.36.17Z"/><path class="cls-1" d="m231.13,278c-.64-2.23-1.28-4.47-1.92-6.7.21-.06.41-.11.62-.17.6,2.25,1.19,4.51,1.79,6.76-.16.04-.32.08-.48.11Z"/><path class="cls-1" d="m190.6,248.52c-1.67,1.26-3.34,2.51-5.01,3.77-.08-.1-.15-.21-.23-.31,1.4-1.61,3.03-2.93,4.97-3.81.09.12.18.23.26.35Z"/><path class="cls-1" d="m291.16,215.4c1.08.8,2.2,1.58,3.23,2.44.19.16.09.67.13,1.02-.11.03-.22.06-.33.1-1.13-1.04-2.26-2.09-3.4-3.13.12-.14.25-.28.37-.42Z"/><path class="cls-1" d="m263.14,233.79c-.68-.75.33-2.8,1.92-4.04.29.85-.41,2.35-1.92,4.04Z"/><path class="cls-1" d="m251.88,280.21c-.71-1.95-1.43-3.9-2.14-5.85.18-.07.36-.13.53-.2.72,1.95,1.45,3.89,2.17,5.84-.19.07-.37.14-.56.21Z"/><path class="cls-1" d="m248.1,274.76c-.85-1.46-1.71-2.92-2.56-4.38.11-.07.23-.13.34-.2,1.52,1.08,2.13,2.68,2.51,4.41-.1.06-.19.11-.29.17Z"/><path class="cls-1" d="m266.84,203.52c.64,1.88.21,3.54-1.37,5,.44-1.61.88-3.22,1.37-5Z"/><path class="cls-1" d="m276.2,218.95c1.22,1.93,1.92,4.01,2.1,6.23-.13.04-.26.07-.38.11-.57-2.11-1.14-4.22-1.71-6.33Z"/><path class="cls-1" d="m286.44,181.71c2.05-.79,4.1-1.58,6.15-2.37.05.14.11.29.16.43-1.86,1.24-4.14,1.41-6.17,2.23-.05-.1-.1-.2-.15-.3Z"/><path class="cls-1" d="m265.06,268.7c.86,2.41,1.73,4.81,2.59,7.22-.15.05-.3.11-.45.16-.83-2.42-1.67-4.83-2.5-7.25.12-.04.24-.09.36-.13Z"/><path class="cls-1" d="m291.74,180.99c2.1-.66,4.2-1.33,6.38-2.02-.86.95-4.74,2.3-6.38,2.02Z"/><path class="cls-1" d="m261.85,213.83c-2.02-.3-4.04-.61-6.06-.91.03-.17.05-.33.08-.5,2.02.32,4.03.64,6.05.96-.02.15-.05.3-.07.45Z"/><path class="cls-1" d="m268.71,189.99c.86-1.85,1.73-3.69,2.59-5.54.13.06.26.12.4.19-.86,1.87-1.73,3.74-2.59,5.61-.13-.09-.26-.17-.4-.26Z"/><path class="cls-1" d="m256.53,211.62c1.05-.73,3.9-.46,5.44.65-1.98-.24-3.69-.44-5.44-.65Z"/><path class="cls-1" d="m269.95,228.59c.87-1.59,1.74-3.19,2.62-4.78l.27.14c-.37,1.86-1.64,3.24-2.55,4.81-.11-.06-.22-.12-.33-.18Z"/><path class="cls-1" d="m270.46,273.82c-.71-1.9-1.42-3.79-2.12-5.69l.39-.14c.72,1.89,1.43,3.79,2.15,5.68-.14.05-.27.1-.41.15Z"/><path class="cls-1" d="m211.31,267.46c-.6,1.4-1.2,2.79-1.8,4.19-.13-.05-.27-.1-.4-.16.53-1.43,1.05-2.86,1.58-4.29.21.09.42.17.62.26Z"/><path class="cls-1" d="m204.27,224.78c1.45.34,2.89.69,4.61,1.09-1.12.53-3.51-.04-4.61-1.09Z"/><path class="cls-1" d="m208.27,240.4c1.22-1.32,2.45-2.64,3.67-3.95,0-.01,0-.02,0-.03-1.27,1.27-2.54,2.54-3.81,3.82.04.06.09.11.13.17Z"/><path class="cls-1" d="m261.93,205.55c-1.44,1.11-2.88,2.23-4.32,3.34-.1-.13-.19-.25-.29-.38,1.44-1.09,2.88-2.18,4.32-3.27l.28.3Z"/><path class="cls-1" d="m89.85,170.04c-1.57.67-3.13,1.35-4.7,2.02-.06-.15-.13-.31-.19-.46,1.58-.64,3.16-1.28,4.74-1.92.05.12.1.24.14.36Z"/><path class="cls-1" d="m241.59,234.63c-1.52.28-3.03.56-4.55.84l-.09-.44c1.52-.29,3.03-.58,4.55-.88.03.16.06.32.09.48Z"/><path class="cls-1" d="m287.95,158.76c-.81-1.56-1.62-3.12-2.43-4.67.13-.07.27-.14.4-.2.79,1.56,1.59,3.11,2.38,4.67-.11.07-.23.14-.34.21Z"/><path class="cls-1" d="m277.62,194.6c-1.38-1.25-2-2.85-2.13-4.67.71,1.56,1.42,3.12,2.13,4.67Z"/><path class="cls-1" d="m264.03,245.05c-.55,1.56-1.11,3.12-1.66,4.68-.13-.05-.27-.1-.4-.14.57-1.55,1.15-3.1,1.72-4.65.11.04.23.08.34.12Z"/><path class="cls-1" d="m291.95,129.94c-1.06-1.17-2.12-2.34-3.18-3.51.11-.1.23-.21.34-.31,1.03,1.19,2.07,2.38,3.1,3.58l-.27.24Z"/><path class="cls-1" d="m167.03,236.98c1.12-.65,2.24-1.29,3.36-1.94.07.13.15.26.22.39-1.11.67-2.23,1.35-3.34,2.02-.08-.16-.16-.31-.25-.47Z"/><path class="cls-1" d="m211.23,259.5c-.26,1.43-.52,2.87-.78,4.3l-.37-.07c.25-1.45.5-2.89.75-4.34.13.03.27.07.4.1Z"/><path class="cls-1" d="m224.79,235.85c1.26-.22,2.51-.44,3.77-.67.03.16.05.33.08.49-1.26.18-2.53.36-3.79.54-.02-.12-.04-.24-.06-.36Z"/><path class="cls-1" d="m239.62,232.67c1.18-.32,2.36-.65,3.55-.97l.12.43c-1.18.32-2.36.63-3.54.95-.04-.13-.08-.27-.12-.4Z"/><path class="cls-1" d="m231.7,104.18c1.55.47,3.09.94,4.64,1.42-.04.13-.08.26-.13.4-1.53-.53-3.06-1.05-4.59-1.58l.07-.24Z"/><path class="cls-1" d="m293.01,226.02c-.87-1.21-1.74-2.41-2.61-3.62.1-.07.19-.14.29-.21.87,1.2,1.74,2.41,2.62,3.61-.1.07-.2.14-.3.22Z"/><path class="cls-1" d="m264.29,272.65c.43,1.18.86,2.35,1.28,3.53-.11.05-.23.09-.34.14-.46-1.15-.92-2.31-1.39-3.46.15-.07.3-.14.45-.2Z"/><path class="cls-1" d="m302.79,203.02c-1.22-.86-2.45-1.71-3.67-2.57.07-.1.14-.2.21-.3,1.23.87,2.46,1.74,3.68,2.61-.07.09-.15.17-.22.26Z"/><path class="cls-1" d="m269.7,203.93v4.28s-.05.01-.08.02c-.1-1.44-.2-2.87-.29-4.31.12,0,.25,0,.37,0Z"/><path class="cls-1" d="m251.62,244.67l2.2-2.43c.13.12.25.25.38.37-.78.77-1.56,1.54-2.34,2.3-.08-.08-.16-.16-.24-.24Z"/><path class="cls-1" d="m273.64,226.76c-.44.94-.89,1.87-1.33,2.81-.14-.07-.28-.14-.43-.21.47-.93.93-1.86,1.4-2.78.12.06.24.13.36.19Z"/><path class="cls-1" d="m186.28,222.63c.88-.06,1.75-.13,2.63-.19,0,.15.02.3.02.45h-2.64c0-.09,0-.17,0-.26Z"/><path class="cls-1" d="m258.9,275.39c.86,1.15,1.71,2.29,2.57,3.44.09-.09.18-.17.27-.26-1.03-.97-2.06-1.95-3.08-2.92.08-.08.17-.17.25-.25Z"/><path class="cls-1" d="m172.44,228.12c1.22-.27,2.45-.53,3.67-.8l.07.33c-1.22.27-2.45.53-3.67.8-.02-.11-.05-.22-.07-.33Z"/><path class="cls-1" d="m261.81,246.02c.46-1.06.92-2.11,1.39-3.17l.35.16c-.48,1.05-.95,2.1-1.43,3.15-.1-.05-.2-.09-.31-.14Z"/><path class="cls-1" d="m199.22,218.43c.97.15,1.93.3,2.9.44-.02.14-.05.28-.07.42-.96-.16-1.93-.31-2.89-.47.02-.13.04-.27.07-.4Z"/><path class="cls-1" d="m186.94,196.09c-.95-.24-1.89-.47-2.84-.71.01-.08.03-.16.04-.24.96.13,1.92.27,2.88.4-.03.18-.06.37-.09.55Z"/><path class="cls-1" d="m145.36,177.41c2.82-2.53,5.44-4.89,8.07-7.25.11.13.22.26.34.38-1.46,3.67-4.19,5.89-8.4,6.87Z"/><path class="cls-1" d="m155.41,172.82c-.81.75-.78,2.15-2.29,2.4-.51.08-.93.71-1.38,1.09.07.11.15.23.22.34.55-.06,1.1-.13,1.82-.21-.97,1.69-2.41,2.53-4.1,3.41.38-1.02.67-1.82,1-2.71-.56.25-1.08.48-1.59.71-.04-.06-.08-.13-.12-.19,2.04-1.73,4.07-3.46,6.11-5.19.12.12.23.24.35.35Z"/><path class="cls-1" d="m159.29,159.26c1.98-.71,3.95-1.42,5.93-2.14.04.12.08.23.12.35-1.84,1.08-3.79,1.88-5.93,2.12-.04-.11-.08-.22-.12-.33Z"/><path class="cls-1" d="m143.38,192.87c-.75.44-1.35.79-2.08,1.22q.09-1.73,2.08-1.22Z"/><path class="cls-1" d="m156.07,186.23h5.15c0,.07,0,.15,0,.22h-5.15c0-.07,0-.15,0-.22Z"/><path class="cls-1" d="m148.99,142.12c-1.86-.59-3.5-1.1-5.15-1.62-.04.08-.08.17-.12.25.65.43,1.31.87,1.96,1.3-4.26-1.43-8.54-2.59-13.12-2.59.21-.08.42-.19.64-.24,2.55-.52,5.07-.18,7.6.25.38.06.87-.33,1.21-.21,2.24.74,4.45,1.56,6.67,2.36.05.02.08.12.3.51Z"/><path class="cls-1" d="m166.71,143.45c-5.25-3.58-10.47-7.14-15.87-10.81,3.36.79,14.72,8.6,15.87,10.81Z"/><path class="cls-1" d="m139.91,140.77c2.39,1.04,4.77,2.08,7.16,3.12-1.39.42-5.72-1.34-7.32-2.73.05-.13.11-.26.16-.39Z"/><path class="cls-1" d="m136.1,136.48c-2.01.78-4.03,1.51-6.11.28,1.98-.43,3.99-1.2,6.11-.28Z"/><path class="cls-1" d="m140.19,142.59c-1.17.66-2.16-.47-3.26-.41,0-.1.02-.21.03-.31,1.08.12,2.16.24,3.24.36v.37Z"/><path class="cls-1" d="m251.54,169.44c-.31-.02-.63-.03-1.09-.06.49,1.18.95,2.26,1.48,3.54.2-.46.33-.77.5-1.17,1.08,3.55.25,6.61-1.97,9.35-1.43,1.76-3.32,2.87-5.56,3.07-1.82.16-3.54-.5-4.97-1.67-5.31-4.3-4.09-12.49.65-16.14,2.46-1.89,6.09-1.98,8.57.04.98.8,1.75,1.85,2.62,2.78-.07.08-.15.16-.22.24Zm-1.22,3.39c.64-2.48-.94-3.63-3.29-4.21.09.34.21.76.33,1.19-.46.08-.93.18-1.39.24-.13.02-.28-.13-.42-.14-1.11-.01-2.22,0-3.33,0,.01.07.03.13.04.2,2.69.91,5.37,1.82,8.07,2.73Z"/></svg>